<svg width="32" height="33" viewBox="0 0 32 33" fill="none" xmlns="http://www.w3.org/2000/svg">
<g clip-path="url(#clip0_1_438)">
<path d="M30.0859 16.9923C30.0859 15.1425 29.7216 13.3108 29.0137 11.6018C28.3058 9.89278 27.2683 8.33995 25.9602 7.03194C24.6522 5.72394 23.0994 4.68637 21.3904 3.97848C19.6814 3.2706 17.8497 2.90625 15.9999 2.90625C14.1501 2.90625 12.3185 3.2706 10.6095 3.97848C8.90047 4.68637 7.34764 5.72394 6.03963 7.03194C4.73163 8.33995 3.69406 9.89278 2.98617 11.6018C2.27829 13.3108 1.91394 15.1425 1.91394 16.9923C1.91407 20.3465 3.111 23.5907 5.28946 26.1413C7.46793 28.6919 10.485 30.3815 13.7979 30.9062V21.0643H10.2219V16.9923H13.7979V13.8883C13.7979 10.3583 15.8999 8.40825 19.1179 8.40825C20.6599 8.40825 22.2699 8.68425 22.2699 8.68425V12.1503H20.4939C18.7439 12.1503 18.1979 13.2362 18.1979 14.3503V16.9923H22.1039L21.4799 21.0643H18.1979V30.9062C21.5109 30.3815 24.528 28.6919 26.7064 26.1413C28.8849 23.5907 30.0818 20.3465 30.0819 16.9923H30.0859Z" fill="#68737D"/>
</g>
<defs>
<clipPath id="clip0_1_438">
<rect width="32" height="32" fill="white" transform="translate(0 0.90625)"/>
</clipPath>
</defs>
</svg>
