<svg width="32" height="33" viewBox="0 0 32 33" fill="none" xmlns="http://www.w3.org/2000/svg">
<g clip-path="url(#clip0_1_441)">
<path d="M30.5 20.0842V30.9662H24.282V20.8122C24.282 18.2622 23.382 16.5222 21.134 16.5222C19.414 16.5222 18.394 17.6942 17.944 18.8282C17.782 19.2322 17.74 19.7982 17.74 20.3662V30.9622H11.518C11.518 30.9622 11.602 13.7662 11.518 11.9882H17.736V14.6802L17.694 14.7422H17.736V14.6802C18.562 13.3902 20.036 11.5462 23.342 11.5462C27.432 11.5462 30.5 14.2602 30.5 20.0862V20.0842ZM5.018 2.84619C2.89 2.84619 1.5 4.26219 1.5 6.12619C1.5 7.94619 2.85 9.40619 4.936 9.40619H4.978C7.148 9.40619 8.492 7.94819 8.492 6.12619C8.45 4.26219 7.14 2.84619 5.018 2.84619ZM1.866 30.9662H8.084V11.9922H1.866V30.9662Z" fill="#68737D"/>
</g>
<defs>
<clipPath id="clip0_1_441">
<rect width="32" height="32" fill="white" transform="translate(0 0.90625)"/>
</clipPath>
</defs>
</svg>
