<svg width="32" height="33" viewBox="0 0 32 33" fill="none" xmlns="http://www.w3.org/2000/svg">
<g clip-path="url(#clip0_1_447)">
<path d="M10.75 2.90625H21.25C23.5706 2.90625 25.7962 3.82812 27.4372 5.46907C29.0781 7.11001 30 9.33561 30 11.6562V22.1562C30 24.4769 29.0781 26.7025 27.4372 28.3434C25.7962 29.9844 23.5706 30.9062 21.25 30.9062H10.75C8.42936 30.9062 6.20376 29.9844 4.56282 28.3434C2.92187 26.7025 2 24.4769 2 22.1562V11.6562C2 9.33561 2.92187 7.11001 4.56282 5.46907C6.20376 3.82812 8.42936 2.90625 10.75 2.90625ZM21.25 28.2822C22.8742 28.2807 24.4315 27.6347 25.58 26.4862C26.7285 25.3377 27.3744 23.7805 27.376 22.1562V11.6562C27.3744 10.032 26.7285 8.47477 25.58 7.32627C24.4315 6.17776 22.8742 5.53184 21.25 5.53025H10.75C9.12577 5.53184 7.56852 6.17776 6.42002 7.32627C5.27151 8.47477 4.62559 10.032 4.624 11.6562V22.1562C4.62559 23.7805 5.27151 25.3377 6.42002 26.4862C7.56852 27.6347 9.12577 28.2807 10.75 28.2822H21.25ZM9 16.9062C9 15.0497 9.7375 13.2693 11.0503 11.9565C12.363 10.6437 14.1435 9.90625 16 9.90625C17.8565 9.90625 19.637 10.6437 20.9497 11.9565C22.2625 13.2693 23 15.0497 23 16.9062C23 18.7628 22.2625 20.5432 20.9497 21.856C19.637 23.1688 17.8565 23.9062 16 23.9062C14.1435 23.9062 12.363 23.1688 11.0503 21.856C9.7375 20.5432 9 18.7628 9 16.9062ZM11.626 16.9062C11.626 19.3183 13.59 21.2822 16.002 21.2822C18.414 21.2822 20.378 19.3183 20.378 16.9062C20.378 14.4923 18.414 12.5302 16.002 12.5302C13.59 12.5302 11.626 14.4923 11.626 16.9062ZM23.318 10.5422C23.571 10.5422 23.8137 10.4417 23.9926 10.2628C24.1715 10.0839 24.272 9.84127 24.272 9.58825C24.272 9.33523 24.1715 9.09258 23.9926 8.91367C23.8137 8.73476 23.571 8.63425 23.318 8.63425C23.065 8.63425 22.8223 8.73476 22.6434 8.91367C22.4645 9.09258 22.364 9.33523 22.364 9.58825C22.364 9.84127 22.4645 10.0839 22.6434 10.2628C22.8223 10.4417 23.065 10.5422 23.318 10.5422Z" fill="#68737D"/>
</g>
<defs>
<clipPath id="clip0_1_447">
<rect width="32" height="32" fill="white" transform="translate(0 0.90625)"/>
</clipPath>
</defs>
</svg>
