<svg width="153" height="32" viewBox="0 0 153 32" fill="none" xmlns="http://www.w3.org/2000/svg">
<g clip-path="url(#clip0_1_78)">
<path fill-rule="evenodd" clip-rule="evenodd" d="M25.4765 8.52666C26.6083 8.68527 27.3498 9.75591 27.6229 10.8662C27.9352 11.9368 27.779 13.3247 26.9205 13.9591C25.2424 15.1884 20.7154 13.6816 20.4812 12.8092C20.2471 11.9368 23.4472 8.28874 25.4765 8.52666ZM18.647 10.9058C19.8568 11.2627 24.8521 6.70262 24.5399 3.80794C24.3838 2.22182 22.8618 1.15119 21.3398 0.754656C19.8568 0.358126 17.9445 0.516738 17.0469 1.74598C15.3688 4.16482 17.4372 10.5886 18.647 10.9058ZM21.2227 19.4313C22.0423 17.6469 20.5983 14.6729 18.8031 12.8488C17.0079 11.0248 14.042 9.55764 12.3248 10.3904C7.68075 12.6506 -0.51468 29.6221 0.890252 31.0496C2.29518 32.5168 18.9982 24.1896 21.2227 19.4313ZM66.524 17.2058L65.0315 16.9642C63.6175 16.7629 62.7534 16.2797 62.7534 15.3938C62.7534 14.3872 63.8139 13.7832 65.4243 13.7832C66.5633 13.7832 67.4667 14.2261 68.3307 14.6691L68.4879 14.7496C68.6842 14.8704 68.9199 14.9107 69.1163 14.9107C69.6269 14.9107 70.1375 14.6288 70.3731 14.1456L70.491 13.904C70.6874 13.5416 70.7266 13.139 70.6088 12.7363C70.491 12.3337 70.216 12.0115 69.8625 11.8505C68.5664 11.2062 67.1917 10.6022 65.3457 10.6022C61.5358 10.6022 59.0614 12.4947 59.0614 15.5549C59.0614 18.0514 60.8289 19.6217 64.1281 20.1049L65.6599 20.3062C67.2703 20.5478 68.0558 21.031 68.0558 21.7961C68.0558 22.5209 67.663 23.447 65.1886 23.447C63.8139 23.447 62.4392 23.0846 61.3002 22.3598C61.0645 22.1987 60.8289 22.1182 60.5539 22.1182C60.0433 22.1182 59.572 22.4001 59.3363 22.8027L59.2578 22.9235C59.0614 23.2859 58.9828 23.6886 59.1007 24.0912C59.2185 24.4939 59.4542 24.816 59.8077 25.0173C61.7715 26.1448 64.0496 26.5474 65.2279 26.5474C69.1948 26.5474 71.6693 24.7757 71.6693 21.5947C71.7086 19.1385 69.9411 17.689 66.524 17.2058ZM111.692 22.1585C112.124 22.1585 112.557 22.3598 112.831 22.6819L112.949 22.843C113.303 23.2456 113.46 23.7288 113.381 24.212C113.342 24.6952 113.067 25.1381 112.674 25.42C111.496 26.2253 110.043 26.6682 108.432 26.6682C103.837 26.6682 100.616 23.3664 100.616 18.6554C100.616 13.9443 103.837 10.6425 108.432 10.6425C110.004 10.6425 111.457 11.0452 112.635 11.8505C113.028 12.1323 113.303 12.5753 113.342 13.0584C113.421 13.5416 113.263 14.0651 112.91 14.4275L112.792 14.5483C112.282 15.112 111.417 15.1925 110.828 14.7899C110.043 14.2664 109.218 14.0248 108.315 14.0248C105.919 14.0248 104.191 15.9576 104.191 18.6151C104.191 21.2726 105.919 23.2054 108.315 23.2054C109.179 23.2054 110.043 22.9235 110.868 22.4001C111.103 22.239 111.417 22.1585 111.692 22.1585ZM38.4803 5.20667C37.302 5.20667 36.3594 6.17304 36.3594 7.42127C36.3594 8.6695 37.2627 9.59561 38.4803 9.59561C39.6979 9.59561 40.6406 8.62924 40.6406 7.42127C40.6406 6.17304 39.6979 5.20667 38.4803 5.20667ZM36.7521 11.8907C36.7521 11.2868 37.2235 10.7633 37.8519 10.7633H39.1088C39.7372 10.7633 40.2478 11.2465 40.2085 11.8907V25.0978C40.2085 25.7018 39.7372 26.2253 39.1088 26.2253H37.8519C37.2627 26.2253 36.7521 25.7421 36.7521 25.0978V11.8907ZM80.428 23.1651C79.0141 23.1651 77.3644 22.0377 77.3644 20.0244V14.0651H80.428C81.0565 14.0651 81.5278 13.5416 81.5278 12.9377V11.8907C81.5278 11.2465 81.0172 10.7633 80.428 10.7633H77.3644V7.34074C77.3644 6.69649 76.8538 6.2133 76.2647 6.2133H74.9293C74.3008 6.2133 73.8295 6.73676 73.8295 7.34074V19.8231C73.8295 23.4067 76.5003 26.5877 80.1924 26.5877C80.5459 26.5877 80.8993 26.4266 81.1743 26.185C81.4492 25.9032 81.567 25.5408 81.567 25.1784V24.2925C81.567 23.6886 81.0565 23.1651 80.428 23.1651ZM42.9972 17.4474C42.9972 14.3067 45.4716 10.6425 49.9492 10.6425C54.3875 10.6425 56.9012 14.2664 56.8226 17.4071V25.1381C56.8226 25.7421 56.3513 26.2655 55.7229 26.2655H54.466C53.8769 26.2655 53.3663 25.7824 53.3663 25.1381V18.0514C53.3663 15.6757 51.9523 14.1054 49.9099 14.1054C47.8675 14.1054 46.4535 15.6757 46.4535 18.0514V25.1381C46.4535 25.7421 45.9822 26.2655 45.3538 26.2655H44.0969C43.5078 26.2655 42.9972 25.7824 42.9972 25.1381V17.4474ZM141.818 10.7633C141.346 10.6425 140.129 10.6022 139.5 10.6022H139.343C135.887 10.6022 132.706 13.5014 132.706 17.4877V25.0576C132.706 25.7018 133.216 26.185 133.805 26.185H135.062C135.691 26.185 136.162 25.6616 136.162 25.0576V17.6085C136.162 15.4341 137.654 14.0248 139.54 14.0248C139.893 14.0248 140.247 14.0651 140.6 14.1456C140.639 14.1456 140.689 14.1557 140.738 14.1657C140.787 14.1758 140.836 14.1859 140.875 14.1859C141.582 14.1859 142.211 13.7027 142.368 12.9779C142.446 12.5753 142.525 12.2934 142.603 12.0518C142.682 11.7699 142.643 11.4881 142.485 11.2465C142.328 11.0049 142.093 10.8438 141.818 10.7633ZM152.265 12.9779C152.265 13.5819 151.794 14.1054 151.166 14.1054V14.0651H148.102V20.0244C148.102 22.0377 149.752 23.1651 151.166 23.1651C151.794 23.1651 152.305 23.6483 152.305 24.2925V25.1784C152.305 25.5408 152.187 25.9032 151.912 26.185C151.637 26.4266 151.284 26.5877 150.93 26.5877C147.238 26.5877 144.567 23.4067 144.567 19.8231V7.381C144.567 6.77702 145.038 6.25357 145.667 6.25357H147.002C147.591 6.25357 148.102 6.73676 148.102 7.381V10.8036H151.166C151.755 10.8036 152.265 11.2868 152.265 11.931V12.9779ZM126.853 11.8505C125.675 11.0452 124.222 10.6425 122.611 10.6425H122.533H122.454C120.883 10.6425 119.391 11.0854 118.252 11.8505C116.131 13.2195 114.835 15.6354 114.835 18.6151C114.835 21.7558 116.249 24.2523 118.566 25.581C119.626 26.2253 120.922 26.6279 122.297 26.6279C124.811 26.6279 126.303 25.1784 126.814 24.5341V25.0978C126.814 25.7421 127.325 26.2253 127.914 26.2253H129.171C129.799 26.2253 130.27 25.7018 130.27 25.0978V18.6554C130.27 15.6354 128.974 13.2195 126.853 11.8505ZM122.729 23.2456C123.122 23.2054 123.554 23.1248 123.947 23.004C125.596 22.4001 126.696 20.7492 126.775 18.6151C126.775 16.1186 125.243 14.2664 123.083 14.0248H122.14C119.98 14.2664 118.448 16.1186 118.448 18.6151C118.448 20.7492 119.548 22.4001 121.197 23.004C121.59 23.1651 121.983 23.2456 122.415 23.2456H122.494H122.572H122.651H122.729ZM95.0783 11.8505C93.9 11.0452 92.4467 10.6425 90.8364 10.6425H90.7578H90.6793C89.1082 10.6425 87.6157 11.0854 86.4767 11.8505C84.3557 13.2195 83.0596 15.6354 83.0596 18.6151C83.0596 21.7558 84.4735 24.2523 86.7909 25.581C87.8513 26.2253 89.1475 26.6279 90.5222 26.6279C93.0359 26.6279 94.5284 25.1784 95.039 24.5341V25.0978C95.039 25.7421 95.5496 26.2253 96.1388 26.2253H97.3956C98.0241 26.2253 98.4954 25.7018 98.4954 25.0978V18.6554C98.4954 15.6354 97.1992 13.2195 95.0783 11.8505ZM90.9542 23.2456C91.347 23.2054 91.779 23.1248 92.1718 23.004C93.8214 22.4001 94.9212 20.7492 94.9997 18.6151C94.9997 16.1186 93.4679 14.2664 91.3077 14.0248H90.3651C88.2048 14.2664 86.673 16.1186 86.673 18.6151C86.673 20.7492 87.7728 22.4001 89.4224 23.004C89.8152 23.1651 90.208 23.2456 90.64 23.2456H90.7186H90.7971H90.8757H90.9542Z" fill="#68737D"/>
</g>
<defs>
<clipPath id="clip0_1_78">
<rect width="152" height="31" fill="white" transform="translate(0.5 0.4375)"/>
</clipPath>
</defs>
</svg>
