<svg width="107" height="28" viewBox="0 0 107 28" fill="none" xmlns="http://www.w3.org/2000/svg">
<g clip-path="url(#clip0_1_49)">
<path fill-rule="evenodd" clip-rule="evenodd" d="M48.8341 23.4271H53.3147V0.93457H48.8345L48.8341 23.4271ZM35.0919 18.6998L33.8027 21.7882C35.6139 23.1122 37.9766 23.7424 40.5541 23.7424C44.0528 23.7424 46.5083 21.6623 46.5083 18.6998C46.4523 15.3768 43.3983 14.5356 41.0143 13.8788C39.4864 13.458 38.2338 13.1129 38.2217 12.239C38.2217 11.5452 38.9585 11.0097 40.0633 11.0097C41.6896 11.0097 43.3983 11.6453 44.7816 12.557L45.9863 9.40286C44.4828 8.17358 42.3648 7.63766 40.2477 7.63766C36.6874 7.63766 34.1706 9.87517 34.2015 12.7745C34.2392 16.2733 37.3014 16.9624 39.671 17.4957C41.165 17.8319 42.3837 18.1062 42.3956 18.9836C42.3956 19.8028 41.5365 20.3383 40.1861 20.3383C38.3445 20.3383 36.5034 19.7712 35.0919 18.6998ZM81.8766 19.5349C83.2275 19.5347 84.4733 18.7881 85.1359 17.5815L88.72 19.6206C87.3775 22.0796 84.8168 23.7424 81.8766 23.7424C77.546 23.7424 74.0354 20.1371 74.0354 15.69C74.0354 11.2425 77.546 7.63766 81.8766 7.63766C84.8168 7.63766 87.3775 9.30046 88.72 11.7595L85.1359 13.7985C84.4733 12.5919 83.2275 11.8453 81.8766 11.8452C79.8088 11.8452 78.1327 13.5666 78.1327 15.69C78.1327 17.8134 79.8088 19.5349 81.8766 19.5349ZM95.4634 23.4271H90.9827V0.93457H95.4634V14.1621L100.527 7.95163H106.009L99.7482 15.4216L106.5 23.4271H100.773L95.4634 16.6883V23.4271ZM67.119 7.95253V9.78089C66.3826 8.52003 64.5719 7.63766 62.6691 7.63766C58.7408 7.63766 55.6413 11.1992 55.6413 15.6742C55.6413 20.1493 58.7408 23.7424 62.6691 23.7424C64.5719 23.7424 66.3826 22.86 67.119 21.5991V23.4271H71.5996V7.95253H67.119ZM63.6207 19.5344C65.1242 19.5344 66.4746 18.7156 67.119 17.6127V13.8301C66.4746 12.696 65.1242 11.8452 63.6207 11.8452C61.5525 11.8452 59.8764 13.5666 59.8764 15.69C59.8764 17.8134 61.5525 19.5344 63.6207 19.5344Z" fill="#68737D" style="fill:#68737D;fill:color(display-p3 0.4078 0.4510 0.4902);fill-opacity:1;"/>
<path fill-rule="evenodd" clip-rule="evenodd" d="M7.51106 3.13741C7.51106 1.64648 8.688 0.4375 10.14 0.4375C11.5935 0.438994 12.7707 1.64771 12.7695 3.13741V5.83732H10.14C9.44209 5.8366 8.773 5.55175 8.27997 5.04541C7.78694 4.53908 7.51036 3.85275 7.51106 3.13741ZM3.12898 7.63726H10.14C11.5921 7.63726 12.7695 8.84624 12.7695 10.3376C12.7695 11.8285 11.5921 13.0375 10.1405 13.0375H3.12898C1.67695 13.0375 0.5 11.8285 0.5 10.3376C0.5 8.84624 1.67695 7.63726 3.12898 7.63726Z" fill="#68737D" style="fill:#68737D;fill:color(display-p3 0.4078 0.4510 0.4902);fill-opacity:1;"/>
<path fill-rule="evenodd" clip-rule="evenodd" d="M19.7804 3.13741V10.3376C19.7816 11.8273 18.6044 13.0365 17.151 13.038C15.6989 13.038 14.522 11.829 14.522 10.3372V3.13741C14.522 1.64648 15.6989 0.4375 17.151 0.4375C18.6044 0.438994 19.7816 1.64771 19.7804 3.13741ZM24.162 7.63726C25.6141 7.63726 26.7914 8.84624 26.7914 10.3376C26.7927 11.8273 25.6155 13.036 24.162 13.0375H21.533V10.3376C21.533 8.84624 22.71 7.63726 24.162 7.63726Z" fill="#68737D" style="fill:#68737D;fill:color(display-p3 0.4078 0.4510 0.4902);fill-opacity:1;"/>
<path fill-rule="evenodd" clip-rule="evenodd" d="M24.1625 20.2378H17.151C16.453 20.2371 15.7839 19.9518 15.2909 19.4454C14.7979 18.9391 14.5213 18.2528 14.522 17.5374C14.522 16.0465 15.6989 14.8375 17.151 14.8375H24.162C25.6155 14.839 26.7927 16.0477 26.7914 17.5374C26.7914 19.0288 25.6141 20.2378 24.1625 20.2378ZM19.7804 24.7376C19.7816 26.2273 18.6044 27.4361 17.151 27.4376C15.6989 27.4376 14.522 26.2286 14.522 24.7376V22.0377H17.151C18.6044 22.0392 19.7816 23.2479 19.7804 24.7376Z" fill="#68737D" style="fill:#68737D;fill:color(display-p3 0.4078 0.4510 0.4902);fill-opacity:1;"/>
<path fill-rule="evenodd" clip-rule="evenodd" d="M1.26892 19.4454C0.775888 18.9391 0.499301 18.2528 0.500001 17.5374C0.500001 16.0465 1.67695 14.8375 3.12898 14.8375H5.75841V17.5374C5.75962 19.0271 4.58246 20.2359 3.12898 20.2373C2.43103 20.2366 1.76195 19.9518 1.26892 19.4454ZM7.51106 24.7372V17.5374C7.51106 16.0465 8.68801 14.8375 10.14 14.8375C10.8381 14.8381 11.5073 15.1229 12.0004 15.6293C12.4935 16.1356 12.7702 16.822 12.7695 17.5374V24.7376C12.7707 26.2273 11.5935 27.4361 10.14 27.4376C8.68801 27.4376 7.51106 26.2286 7.51106 24.7372Z" fill="#68737D" style="fill:#68737D;fill:color(display-p3 0.4078 0.4510 0.4902);fill-opacity:1;"/>
</g>
<defs>
<clipPath id="clip0_1_49">
<rect width="106" height="27" fill="white" style="fill:white;fill-opacity:1;" transform="translate(0.5 0.4375)"/>
</clipPath>
</defs>
</svg>
