<svg width="174" height="39" viewBox="0 0 174 39" fill="none" xmlns="http://www.w3.org/2000/svg">
<g clip-path="url(#clip0_1_87)">
<path d="M167.437 31.6096L167.813 29.9059C167.362 30.5438 166.861 31.0216 166.308 31.3418C165.75 31.6608 165.14 31.8183 164.474 31.8183C163.379 31.8183 162.621 31.4088 162.201 30.5884C161.779 29.7681 161.718 28.6853 162.013 27.3399C162.327 25.9198 162.921 24.7372 163.801 23.7895C164.681 22.8432 165.724 22.3694 166.927 22.3694C167.251 22.3694 167.542 22.4035 167.797 22.4731C168.051 22.5426 168.291 22.6477 168.508 22.7921C168.726 22.9351 168.963 23.1701 169.223 23.493L170.297 18.6143H172.728L169.869 31.6096H167.437ZM168.904 24.9433C168.657 24.5574 168.399 24.3001 168.135 24.1623C167.869 24.0245 167.584 23.9549 167.278 23.9549C166.636 23.9549 166.083 24.2739 165.625 24.9065C165.165 25.5378 164.843 26.282 164.655 27.1378C164.468 27.9804 164.472 28.6538 164.657 29.1552C164.846 29.6552 165.22 29.9059 165.786 29.9059C166.143 29.9059 166.527 29.7786 166.934 29.524C167.342 29.268 167.736 28.9333 168.117 28.5173L168.903 24.9433H168.904ZM151.748 31.6096L153.734 22.5794H156.164L155.792 24.2739C156.383 23.5809 156.98 23.0873 157.575 22.8012C158.172 22.5138 158.744 22.3694 159.294 22.3694C160.009 22.3694 160.57 22.6004 160.986 23.0572C161.4 23.5152 161.496 24.2384 161.277 25.2228L159.872 31.6096H157.443L158.715 25.8213C158.827 25.3291 158.853 24.9944 158.802 24.8186C158.748 24.644 158.653 24.5088 158.517 24.4196C158.38 24.3289 158.214 24.2817 158.022 24.2817C157.687 24.2817 157.31 24.3946 156.898 24.6164C156.486 24.8396 155.995 25.274 155.429 25.9198L154.177 31.6096H151.748ZM147.643 30.6525C147.219 30.9898 146.86 31.2313 146.57 31.3783C146.28 31.5253 145.985 31.6356 145.69 31.7091C145.395 31.7826 145.09 31.818 144.779 31.818C143.971 31.818 143.38 31.5686 143.005 31.0686C142.631 30.5645 142.521 29.9477 142.683 29.2205C142.878 28.3319 143.405 27.5904 144.261 26.9945C145.115 26.3999 146.359 26.102 147.986 26.102H148.634L148.817 25.2843C148.936 24.7343 148.865 24.3642 148.599 24.1725C148.333 23.9809 147.967 23.8864 147.495 23.8864C146.563 23.8864 145.554 24.1542 144.467 24.6871L144.838 22.9991C146.029 22.5791 147.174 22.3691 148.265 22.3691C148.934 22.3691 149.509 22.461 149.999 22.6408C150.483 22.8233 150.84 23.1055 151.074 23.4874C151.306 23.8667 151.337 24.4364 151.17 25.1937L150.29 29.193C150.183 29.6812 150.195 29.9818 150.324 30.0933C150.454 30.2023 150.595 30.2548 150.746 30.2548C150.836 30.2548 150.948 30.2464 151.087 30.2299L150.836 31.591C150.287 31.7419 149.812 31.8181 149.413 31.8181C148.959 31.8181 148.59 31.7458 148.298 31.5936C148.002 31.4453 147.819 31.1316 147.75 30.6525H147.643ZM147.921 29.3491L148.328 27.5024H147.752C146.96 27.5024 146.336 27.6455 145.886 27.929C145.435 28.2151 145.163 28.5682 145.067 28.9935C144.989 29.3413 145.047 29.6274 145.231 29.8518C145.418 30.0737 145.671 30.1865 145.987 30.1865C146.272 30.1865 146.577 30.1157 146.902 29.9739C147.225 29.8348 147.566 29.6248 147.921 29.3491ZM132.638 31.6096L135.319 19.4306H139.878C140.808 19.4306 141.493 19.5488 141.931 19.7811C142.368 20.0134 142.677 20.3678 142.853 20.8416C143.032 21.3154 143.055 21.8536 142.924 22.4521C142.767 23.1661 142.411 23.8407 141.86 24.4734C141.309 25.11 140.62 25.593 139.796 25.9277L142.541 31.6096H139.448L137.509 26.6404H136.117L135.02 31.6096H132.638ZM136.485 24.9577H137.071C138.113 24.9577 138.889 24.7333 139.393 24.2791C139.895 23.825 140.209 23.3092 140.335 22.7356C140.444 22.2381 140.368 21.8431 140.109 21.5491C139.845 21.2564 139.215 21.1094 138.217 21.1094H137.331L136.485 24.9577ZM124.156 31.6096L127.014 18.6143H129.446L126.585 31.6096H124.156ZM119.755 31.6096L122.613 18.6143H125.046L122.184 31.6096H119.755ZM113.976 31.8185C113 31.8185 112.202 31.6282 111.588 31.2476C110.97 30.8656 110.561 30.3052 110.356 29.5636C110.151 28.822 110.15 28.0004 110.349 27.0934C110.547 26.1957 110.907 25.374 111.433 24.6377C111.955 23.9014 112.614 23.3383 113.401 22.9511C114.187 22.5652 115.073 22.3697 116.055 22.3697C117.041 22.3697 117.845 22.5652 118.46 22.9511C119.072 23.3383 119.481 23.9014 119.684 24.6377C119.885 25.374 119.887 26.1957 119.689 27.0934C119.492 28.0004 119.128 28.822 118.597 29.5636C118.065 30.3052 117.407 30.8656 116.625 31.2476C115.84 31.6282 114.958 31.8185 113.976 31.8185ZM114.31 30.3039C115 30.3039 115.585 29.9994 116.066 29.3917C116.546 28.784 116.889 28.0188 117.093 27.0934C117.295 26.176 117.288 25.4121 117.076 24.8005C116.863 24.1914 116.41 23.8869 115.721 23.8869C115.037 23.8869 114.457 24.1914 113.972 24.8005C113.488 25.4121 113.15 26.176 112.945 27.0934C112.745 28.0188 112.746 28.784 112.962 29.3917C113.176 29.9994 113.626 30.3039 114.31 30.3039ZM101.804 31.3307L102.198 29.5338C103.295 30.0457 104.27 30.303 105.127 30.303C105.585 30.303 105.97 30.2071 106.283 30.0129C106.6 29.8213 106.788 29.5771 106.853 29.2805C106.911 29.0232 106.854 28.8054 106.694 28.6308C106.525 28.4602 106.254 28.2922 105.873 28.1281L105.122 27.7987C104.349 27.4587 103.801 27.0833 103.485 26.6712C103.17 26.2643 103.083 25.7327 103.228 25.0804C103.401 24.2942 103.848 23.6471 104.572 23.1366C105.294 22.6247 106.283 22.3687 107.538 22.3687C108.273 22.3687 109.122 22.4803 110.091 22.6956L109.715 24.4005C108.815 24.058 108.046 23.886 107.405 23.886C106.902 23.886 106.506 23.974 106.216 24.1459C105.925 24.3205 105.75 24.5436 105.691 24.8179C105.644 25.0318 105.685 25.2209 105.813 25.3849C105.933 25.5503 106.189 25.7117 106.575 25.8719L107.221 26.1436C108.289 26.5885 108.959 27.0203 109.228 27.4364C109.49 27.8603 109.558 28.3657 109.427 28.9537C109.259 29.7163 108.785 30.3843 108.002 30.9579C107.221 31.5315 106.205 31.8189 104.955 31.8189C103.89 31.8189 102.838 31.6549 101.804 31.3307ZM95.6978 31.6096L97.6855 22.5794H100.115L99.7416 24.2817C100.16 23.7003 100.661 23.2343 101.24 22.8905C101.823 22.544 102.422 22.3694 103.044 22.3694C103.191 22.3694 103.344 22.3788 103.491 22.393L103.01 24.5863C102.696 24.4616 102.389 24.3999 102.088 24.3999C101.602 24.3999 101.138 24.5219 100.691 24.7648C100.24 25.0102 99.8073 25.379 99.3919 25.8686L98.1285 31.6096H95.6978ZM94.3817 31.3061C93.1552 31.6474 92.0246 31.818 90.9953 31.818C90.0185 31.818 89.2021 31.6356 88.5487 31.272C87.8954 30.9071 87.4576 30.3362 87.2315 29.5605C87.0067 28.7834 86.9962 27.9395 87.1934 27.0286C87.3814 26.1833 87.7206 25.4024 88.2136 24.6871C88.7065 23.973 89.3205 23.406 90.0514 22.9913C90.785 22.5778 91.6184 22.3691 92.5584 22.3691C93.7087 22.3691 94.5474 22.7393 95.072 23.4769C95.5965 24.2145 95.6373 25.5874 95.1969 27.5956H89.6439C89.565 28.2046 89.5953 28.6889 89.7385 29.0394C89.8805 29.3911 90.1158 29.6707 90.4471 29.8768C90.7758 30.0829 91.2556 30.1865 91.8866 30.1865C92.6951 30.1865 93.6522 29.991 94.7565 29.6038L94.3817 31.3061ZM89.8989 26.2201H93.0921C93.2761 25.3853 93.2722 24.7868 93.0763 24.4272C92.8844 24.0649 92.5702 23.8864 92.1403 23.8864C91.6697 23.8864 91.2385 24.0833 90.8506 24.4797C90.4602 24.8761 90.1447 25.4562 89.8989 26.2201ZM76.4184 34.3857L76.9995 32.6125C77.8934 33.0784 78.79 33.3121 79.6866 33.3121C80.5332 33.3121 81.2063 33.1335 81.7111 32.7805C82.2133 32.4248 82.5656 31.7908 82.7641 30.8786L83.0362 29.6488C82.6471 30.2289 82.162 30.6988 81.5823 31.0624C81.0012 31.4273 80.3689 31.6097 79.6826 31.6097C78.9832 31.6097 78.4087 31.4338 77.9552 31.0821C77.5043 30.7316 77.2124 30.204 77.0836 29.4992C76.9574 28.793 76.9863 28.0094 77.1756 27.1419C77.4767 25.786 78.0656 24.6533 78.9491 23.7398C79.8325 22.8263 80.8802 22.3695 82.091 22.3695C82.4118 22.3695 82.7023 22.4036 82.9547 22.4679C83.2071 22.5322 83.4425 22.632 83.6554 22.7698C83.8723 22.9089 84.1182 23.1412 84.3942 23.4694L84.8452 22.5795H87.0222L85.5077 29.461C85.1081 31.2789 84.6624 32.5048 84.1721 33.1335C83.6843 33.7622 83.0428 34.2373 82.2501 34.5576C81.4613 34.8778 80.5937 35.0393 79.6563 35.0393C78.6112 35.0393 77.5306 34.8215 76.4184 34.3857ZM83.3478 28.2299L84.0853 24.8869C83.825 24.4892 83.5595 24.2241 83.2939 24.0889C83.0283 23.955 82.7562 23.8867 82.4788 23.8867C81.878 23.8867 81.3325 24.1663 80.8474 24.7294C80.3623 25.2898 80.0152 26.0498 79.8049 27.0079C79.6235 27.8283 79.6274 28.4727 79.8143 28.9439C80.001 29.4138 80.3665 29.6487 80.9094 29.6487C81.2999 29.6487 81.6982 29.5319 82.1044 29.2944C82.508 29.0568 82.9258 28.7024 83.3478 28.2299ZM66.8671 31.6095L68.8548 22.5793H71.2869L70.9135 24.2738C71.5038 23.5808 72.1006 23.0873 72.6962 22.8012C73.2917 22.5137 73.8649 22.3693 74.4157 22.3693C75.1295 22.3693 75.6909 22.6003 76.105 23.0571C76.5178 23.5152 76.6177 24.2384 76.3995 25.2228L74.9928 31.6095H72.5621L73.8359 25.8213C73.9464 25.3291 73.974 24.9944 73.9201 24.8185C73.8689 24.6439 73.7742 24.5088 73.6388 24.4195C73.4994 24.3289 73.3351 24.2817 73.1431 24.2817C72.8066 24.2817 72.4319 24.3946 72.0191 24.6164C71.6077 24.8395 71.1173 25.274 70.5507 25.9197L69.2992 31.6095H66.8671ZM62.4346 31.6095L65.1125 19.4306H67.6392L64.9587 31.6095H62.4346Z" fill="#68737D"/>
<path d="M61.3201 11.3143C59.4192 1.96645 44.3614 -1.75062 27.6801 3.01122C24.2292 3.99693 20.9821 5.27271 18.015 6.75192H20.0566C22.4387 5.50371 25.0416 4.44581 27.8102 3.65567C41.6585 -0.29897 54.3631 3.78561 56.1931 12.779C57.2421 17.9333 54.4814 23.5811 49.3281 28.2104L48.843 30.5139C57.4906 24.9829 62.6111 17.6682 61.3201 11.3143ZM42.1839 33.1228C39.8031 34.371 37.2014 35.4276 34.4302 36.2177C20.5858 40.1724 7.87865 36.0891 6.05132 27.0983C5.00224 21.9322 7.77085 16.2752 12.9413 11.6433L13.4251 9.34639C4.76429 14.8813 -0.366697 22.2052 0.925582 28.5618C2.82522 37.9096 17.8869 41.6253 34.563 36.8635C38.0139 35.8778 41.2597 34.602 44.2294 33.1228H42.1839ZM35.7063 17.5321L36.7738 12.4697C39.5148 12.4973 41.6944 12.3844 41.1988 14.7272C40.5612 17.7565 39.4951 17.4757 35.7063 17.5321ZM23.1924 31.6142H32.7379L34.6349 22.6076C38.2501 22.4908 39.4767 22.9003 39.0915 24.7287L37.6401 31.6142H47.1449L48.7369 24.0514C48.9499 23.046 49.4705 20.5758 45.307 19.4576C49.5388 18.3078 50.4564 15.8901 50.8101 14.2127C51.6343 10.2948 48.4214 8.26172 43.4718 8.26172H28.113L23.1924 31.6142ZM15.1204 8.26119H25.2509L20.3303 31.6137H10.1997L15.1204 8.26119Z" fill="#68737D"/>
</g>
<defs>
<clipPath id="clip0_1_87">
<rect width="173" height="38" fill="white" transform="translate(0.5 0.9375)"/>
</clipPath>
</defs>
</svg>
