<svg width="32" height="33" viewBox="0 0 32 33" fill="none" xmlns="http://www.w3.org/2000/svg">
<path d="M0 28.5427H14.1862V11.4169L0 28.5427ZM14.1862 5.27002C14.1862 7.15122 13.4389 8.95538 12.1087 10.2856C10.7785 11.6158 8.9743 12.3631 7.09309 12.3631C5.21189 12.3631 3.40773 11.6158 2.07752 10.2856C0.747306 8.95538 0 7.15122 0 5.27002L14.1862 5.27002ZM16.5236 28.5427C16.5236 26.6615 17.2709 24.8574 18.6012 23.5272C19.9314 22.197 21.7355 21.4497 23.6167 21.4497C25.4979 21.4497 27.3021 22.197 28.6323 23.5272C29.9625 24.8574 30.7098 26.6615 30.7098 28.5427H16.5236ZM16.5236 22.3958V5.27002H30.7098L16.5236 22.3958Z" fill="#03363D"/>
</svg>
