<svg width="162" height="24" viewBox="0 0 162 24" fill="none" xmlns="http://www.w3.org/2000/svg">
<g clip-path="url(#clip0_1_56)">
<path d="M101.238 20.481C104.236 20.481 105.163 18.4003 105.791 15.894H104.384C102.437 15.894 99.2036 16.2278 99.2036 18.8505C99.2036 19.9374 100.219 20.481 101.238 20.481ZM105.163 20.6918H105.102C103.725 22.4416 102.348 23.4375 100.13 23.4375C97.3463 23.4375 95.3696 21.8681 95.3696 19.0039C95.3696 13.8751 101.06 13.4821 104.833 13.4821H106.24C106.361 13.0586 106.361 12.6063 106.361 12.1558C106.361 10.5864 104.684 10.1341 103.275 10.1341C101.509 10.1341 99.8014 10.5864 98.2146 11.3406L98.7844 8.11238C100.49 7.50977 102.228 7.17755 104.025 7.17755C107.108 7.17755 110.014 8.32477 110.014 11.9735C110.014 14.0558 108.487 20.1485 108.126 23.0761H104.744L105.163 20.6918Z" fill="#68737D"/>
<path d="M1.12894 7.52562H4.03365L4.72221 4.32912L9.03554 2.91003L8.04709 7.52562H11.6401L11.0116 10.4822H7.41784L5.95016 17.2702C5.86059 17.6326 5.77109 18.1746 5.77109 18.7772C5.77109 19.712 6.4 20.2857 7.29735 20.2857C8.01763 20.2857 8.73564 20.1354 9.24433 19.9244L8.55651 23.0618C7.86748 23.2118 7.08963 23.4244 6.4 23.4244C3.67492 23.4244 1.75737 22.3373 1.75737 19.3493C1.75737 18.1439 1.99713 16.9679 2.26604 15.7322L3.4047 10.4822H0.5L1.12894 7.52562Z" fill="#68737D"/>
<path d="M14.7568 0.827454H18.7702L17.9317 4.69046H13.9181L14.7568 0.827454ZM13.2891 7.52561H17.3028L14.0078 23.0618H9.99365L13.2891 7.52561Z" fill="#68737D"/>
<path d="M29.4198 11.085C28.6416 10.572 27.5935 10.3015 26.4846 10.3015C23.2808 10.3015 21.484 13.3175 21.484 16.2442C21.484 18.264 22.1419 20.2857 24.8979 20.2857C25.8869 20.2857 27.1151 20.0143 28.1624 19.5009L27.7126 22.7005C26.4846 23.3031 25.1668 23.4244 23.8491 23.4244C19.8663 23.4244 17.2915 20.7393 17.2915 16.7266C17.2915 11.2974 20.8548 7.16455 26.3945 7.16455C27.8932 7.16455 29.3302 7.43622 30.4082 7.76683L29.4198 11.085Z" fill="#68737D"/>
<path d="M33.8207 0.437561H37.8341L35.1677 13.1672H35.2296L40.8297 7.5256H46.0401L38.644 14.6149L43.2843 23.0618H38.7625L34.7782 14.8262H34.7196L32.9822 23.0618H29.0591L33.8207 0.437561Z" fill="#68737D"/>
<path d="M60.5083 7.52562H63.413L64.1016 4.32912L68.4149 2.91003L67.4265 7.52562H71.0206L70.3908 10.4822H66.7974L65.3295 17.2702C65.2398 17.6326 65.151 18.1746 65.151 18.7772C65.151 19.712 65.7791 20.2857 66.6781 20.2857C67.3965 20.2857 68.115 20.1354 68.6234 19.9244L67.9364 23.0618C67.2466 23.2118 66.4682 23.4244 65.7791 23.4244C63.0541 23.4244 61.1367 22.3373 61.1367 19.3493C61.1367 18.1439 61.3763 16.9679 61.6467 15.7322L62.7836 10.4822H59.8794L60.5083 7.52562Z" fill="#68737D"/>
<path d="M59.1655 13.0763C59.1655 9.1257 56.6502 7.16455 52.8468 7.16455C47.7856 7.16455 44.0708 11.8103 44.0708 16.6357C44.0708 21.2512 47.0661 23.4244 51.4997 23.4244C53.146 23.4244 54.8535 23.0317 56.4107 22.5486L56.9194 19.3493C55.4223 20.0458 53.834 20.4679 52.1869 20.4679C49.6206 20.4679 48.1206 19.5486 47.9286 17.1068H47.9254C47.9184 16.9653 47.9046 16.8262 47.9046 16.6776C47.9046 16.6487 47.9059 16.6196 47.9059 16.591C47.9059 16.5745 47.9046 16.5622 47.9046 16.5457H47.9074C47.9254 15.4824 48.1571 14.4333 48.5604 13.4636C49.3317 11.4869 50.4209 10.1211 52.7867 10.1211C54.4627 10.1211 55.3324 11.0546 55.3324 12.7149C55.3324 13.0763 55.3017 13.4085 55.2429 13.7698H49.7511C49.3947 14.991 49.333 15.8088 49.3257 16.5457H58.7755C59.0153 15.3985 59.1655 14.2526 59.1655 13.0763Z" fill="#68737D"/>
<path d="M72.7515 9.24545C72.8702 8.64258 72.9908 8.00983 73.0801 7.52557H76.8248L76.4649 9.60674H76.5249C77.6032 8.00983 79.3692 7.16449 81.2559 7.16449C83.0832 7.16449 84.9699 8.24981 85.1798 10.121H85.2398C86.2588 8.09924 88.5053 7.16449 90.6599 7.16449C92.9651 7.16449 94.9437 9.06448 94.9437 11.4171C94.9437 12.8043 94.5818 14.3737 94.254 15.6397L92.6365 23.0618H88.6226L90.2407 15.4894C90.4506 14.5544 90.7499 13.1051 90.7499 12.1716C90.7499 11.0244 89.8822 10.3014 88.8639 10.3014C86.0775 10.3014 85.3891 13.5603 84.8793 15.6714L83.2932 23.0618H79.2799L80.8973 15.4894C81.1079 14.5544 81.4065 13.1051 81.4065 12.1716C81.4065 11.0244 80.5368 10.3014 79.5185 10.3014C76.7941 10.3014 76.045 13.5891 75.5366 15.6714L73.9484 23.0618H69.9365L72.7515 9.24545Z" fill="#68737D"/>
<path d="M121.935 10.6891C121.504 10.452 120.397 10.1211 119.259 10.1211C118.06 10.1211 116.563 10.452 116.563 11.6876C116.563 13.6497 121.774 14.3737 121.774 18.1746C121.774 22.2183 118.271 23.4244 114.828 23.4244C113.209 23.4244 111.591 23.1832 110.125 22.4881L110.995 19.261C112.13 19.8929 113.27 20.4679 114.828 20.4679C116.173 20.4679 117.582 20.0143 117.582 18.7483C117.582 16.2442 112.371 16.001 112.371 12.1108C112.371 8.46227 115.875 7.16455 119.049 7.16455C120.517 7.16455 122.015 7.43622 122.805 7.64284L121.935 10.6891Z" fill="#68737D"/>
<path d="M124.502 7.52562H127.407L128.095 4.32912L132.406 2.91003L131.418 7.52562H135.013L134.385 10.4822H130.789L129.321 17.2702C129.233 17.6326 129.142 18.1746 129.142 18.7772C129.142 19.712 129.772 20.2857 130.67 20.2857C131.388 20.2857 132.108 20.1354 132.617 19.9244L131.927 23.0618C131.238 23.2118 130.461 23.4244 129.772 23.4244C127.046 23.4244 125.129 22.3373 125.129 19.3493C125.129 18.1439 125.371 16.9679 125.639 15.7322L126.777 10.4822H123.871L124.502 7.52562Z" fill="#68737D"/>
<path d="M151.708 9.60674C151.826 8.94439 151.947 8.24981 152.068 7.52557H155.901L155.361 10.4519H155.422C156.142 8.76267 158.116 7.16449 159.973 7.16449C160.483 7.16449 161.021 7.19329 161.5 7.31445L160.663 11.2656C160.214 11.1151 159.642 11.0244 159.134 11.0244C156.288 11.0244 154.911 13.5891 154.403 16.0933L152.965 23.0618H148.953L151.708 9.60674Z" fill="#68737D"/>
<path d="M148.923 13.0763C148.923 9.1257 146.408 7.16455 142.604 7.16455C137.544 7.16455 133.829 11.8103 133.829 16.6357C133.829 21.2512 136.824 23.4244 141.257 23.4244C142.902 23.4244 144.611 23.0317 146.169 22.5486L146.677 19.3493C145.179 20.0458 143.592 20.4679 141.945 20.4679C139.377 20.4679 137.879 19.5486 137.685 17.1068H137.682C137.676 16.9653 137.662 16.8262 137.662 16.6776C137.662 16.6487 137.664 16.6196 137.664 16.591C137.664 16.5745 137.662 16.5622 137.662 16.5457H137.664C137.682 15.4824 137.914 14.4333 138.317 13.4636C139.087 11.4869 140.178 10.1211 142.544 10.1211C144.22 10.1211 145.09 11.0546 145.09 12.7149C145.09 13.0763 145.059 13.4085 145.001 13.7698H139.509C139.151 14.991 139.09 15.8088 139.081 16.5457H148.533C148.773 15.3985 148.923 14.2526 148.923 13.0763Z" fill="#68737D"/>
</g>
<defs>
<clipPath id="clip0_1_56">
<rect width="161" height="23" fill="white" transform="translate(0.5 0.4375)"/>
</clipPath>
</defs>
</svg>
