<svg width="97" height="28" viewBox="0 0 97 28" fill="none" xmlns="http://www.w3.org/2000/svg">
<g clip-path="url(#clip0_1_70)">
<path fill-rule="evenodd" clip-rule="evenodd" d="M85.473 0.4375C78.4523 0.4375 74.4459 4.48371 74.4459 9.39967C74.4459 14.2778 78.4523 18.3618 85.473 18.3618C92.4938 18.3618 96.5002 14.2778 96.5002 9.39967C96.462 4.48371 92.4556 0.4375 85.473 0.4375ZM85.473 15.7526C81.9245 15.7526 79.6352 12.8408 79.6352 9.39967C79.6352 5.92069 81.9245 3.04674 85.473 3.04674C89.0216 3.04674 91.3109 5.92069 91.3109 9.39967C91.2728 12.8408 88.9834 15.7526 85.473 15.7526ZM1.30078 0.777836H20.7985V5.01312C19.4249 3.84086 16.4869 3.38708 13.3581 3.38708V14.9207C13.3581 16.6224 13.5107 17.1139 14.1594 17.9837H7.93994C8.62674 17.1139 8.74121 16.6224 8.74121 14.9207V3.38708C5.61242 3.38708 2.6744 3.84086 1.30078 5.01312V0.777836ZM30.1468 15.3745C32.1309 15.3745 35.4886 14.9207 36.7859 13.7484V17.9837H22.5919C23.2787 17.1896 23.3931 16.6224 23.3931 14.9963V3.80304C23.3931 2.13918 23.2787 1.60977 22.5919 0.815651H36.061V5.05094C34.7255 3.87867 31.4059 3.38708 29.3836 3.38708H27.8192V7.9627H28.9639C30.1086 7.9627 31.8638 7.92488 33.0085 7.50892V10.9123C31.8638 10.4963 30.1086 10.4585 28.9639 10.4585H27.8192V15.4123L30.1468 15.3745ZM48.7669 7.39547C52.1628 7.84925 54.9482 9.05934 54.9482 12.6896C54.9482 17.0005 50.8655 18.3618 46.4394 18.324C43.3488 18.2862 40.716 18.0215 38.8082 17.2274V13.4081C41.5554 15.1854 44.379 15.7526 46.4394 15.7526C48.5761 15.7526 50.5602 15.2232 50.5602 13.5971C50.5602 11.9711 48.7288 11.5929 44.9895 11.0257C41.7462 10.5341 38.8082 9.17278 38.8082 5.99632C38.77 1.72321 42.8527 0.4375 46.7446 0.4375C49.2629 0.4375 51.7049 0.740021 53.9561 1.45851V5.61817C52.0865 3.9543 49.3011 3.04674 46.5539 3.04674C44.6842 3.04674 42.929 3.65178 42.929 5.01312C42.929 6.7148 45.5237 6.97951 48.7669 7.39547ZM68.0357 0.4375C70.058 0.4375 71.8132 0.66439 73.225 1.04254V5.31564C71.8513 3.91649 70.2106 3.04674 68.0739 3.04674C64.1438 3.04674 61.5492 5.76943 61.5492 9.39967C61.5492 13.0299 64.182 15.7526 68.112 15.7526C70.2488 15.7526 71.8895 14.8829 73.2631 13.4837V17.7568C71.8513 18.135 70.0962 18.3997 68.0739 18.3997C61.2821 18.3997 56.36 15.0341 56.36 9.39967C56.3218 3.76523 61.2439 0.4375 68.0357 0.4375Z" fill="#68737D"/>
<path d="M96.2703 22.6729H84.5183C82.6105 22.6729 81.0842 23.8451 80.3593 24.7149C80.3593 24.7149 78.5278 26.6056 77.3068 27.2863L77.2686 27.3241L77.2305 27.3619L77.2686 27.4376H88.4865C90.6614 27.4376 91.6916 26.6056 93.0652 25.3199C93.0652 25.3199 94.8967 23.4292 96.2703 22.8241H96.3085L96.3467 22.7863V22.6729H96.2703Z" fill="#68737D"/>
<path d="M77.0789 22.6729H65.3269C63.4191 22.6729 61.8928 23.8451 61.1679 24.7149C61.1679 24.7149 59.3364 26.6056 58.1154 27.2863L58.0772 27.3241L58.0391 27.3619L58.0772 27.4376H69.2951C71.47 27.4376 72.5002 26.6056 73.8738 25.3199C73.8738 25.3199 75.7053 23.4292 77.0789 22.8241H77.1171L77.1552 22.7863V22.6729H77.0789Z" fill="#68737D"/>
<path d="M57.9246 22.6729H46.1726C44.2648 22.6729 42.7385 23.8451 42.0136 24.7149C42.0136 24.7149 40.1821 26.6056 38.9611 27.2863L38.9229 27.3241L38.8848 27.3619L38.9229 27.4376H50.1026C52.2775 27.4376 53.3078 26.6056 54.6814 25.3199C54.6814 25.3199 56.5129 23.4292 57.8865 22.8241H57.9246L57.9628 22.7863V22.6729H57.9246Z" fill="#68737D"/>
<path d="M38.7332 22.6729H26.9812C25.0734 22.6729 23.5471 23.8451 22.8222 24.7149C22.8222 24.7149 20.9907 26.6056 19.7697 27.2863L19.7315 27.3241L19.6934 27.3619L19.7315 27.4376H30.9494C33.1243 27.4376 34.1545 26.6056 35.5281 25.3199C35.5281 25.3199 37.3596 23.4292 38.7332 22.8241H38.7714L38.8095 22.7863V22.6729H38.7332Z" fill="#68737D"/>
<path d="M19.578 22.6727H7.78781C5.88 22.6727 4.35376 23.845 3.6288 24.7147C3.6288 24.7147 1.79731 26.6055 0.576312 27.2862L0.538156 27.324L0.5 27.3618L0.538156 27.4374H11.756C13.9309 27.4374 14.9611 26.6055 16.3348 25.3198C16.3348 25.3198 18.1663 23.429 19.5399 22.824H19.578L19.6162 22.7862L19.578 22.6727Z" fill="#68737D"/>
</g>
<defs>
<clipPath id="clip0_1_70">
<rect width="96" height="27" fill="white" transform="translate(0.5 0.4375)"/>
</clipPath>
</defs>
</svg>
