<svg width="60" height="22" viewBox="0 0 60 22" fill="none" xmlns="http://www.w3.org/2000/svg">
<g clip-path="url(#clip0_1_81)">
<path d="M3.83191 15.4354C4.07665 16.1138 4.41547 16.6939 4.84846 17.1756C5.28144 17.6574 5.7944 18.026 6.38733 18.2817C6.98032 18.5373 7.62505 18.6651 8.32157 18.6651C8.99929 18.6651 9.63458 18.5323 10.2276 18.2668C10.8206 18.0014 11.3382 17.6278 11.7806 17.1461C12.2229 16.6643 12.5665 16.0892 12.8112 15.4207C13.056 14.7521 13.1783 14.005 13.1783 13.1791V0.4375H16.1431V21.0836H13.2065V19.1664C12.5477 19.8939 11.7711 20.4543 10.877 20.8477C9.98278 21.2409 9.0181 21.4375 7.98275 21.4375C6.92853 21.4375 5.94497 21.2458 5.03196 20.8623C4.11901 20.4789 3.32833 19.9333 2.66011 19.2254C1.99189 18.5175 1.46475 17.6672 1.07887 16.6742C0.692937 15.6812 0.5 14.5752 0.5 13.356V0.4375H3.46485V13.1791C3.46485 14.005 3.58718 14.757 3.83191 15.4354Z" fill="#68737D"/>
<path fill-rule="evenodd" clip-rule="evenodd" d="M21.6231 7.95858V0.4375H18.7505V21.0836H21.5947V19.1959C22.2583 19.8841 23.031 20.4298 23.9127 20.8328C24.7945 21.236 25.7472 21.4375 26.7712 21.4375C27.833 21.4375 28.8284 21.2311 29.7576 20.8182C30.6867 20.4052 31.4925 19.8448 32.1751 19.1369C32.8578 18.4291 33.3982 17.5984 33.7964 16.6447C34.1946 15.691 34.3936 14.6735 34.3936 13.5921C34.3936 12.5106 34.1946 11.4881 33.7964 10.5246C33.3982 9.56111 32.8578 8.72548 32.1751 8.01758C31.4925 7.30967 30.6867 6.74926 29.7576 6.33634C28.8284 5.92343 27.833 5.717 26.7712 5.717C25.7473 5.717 24.7992 5.91853 23.927 6.32166C23.0548 6.72479 22.2868 7.27038 21.6231 7.95858ZM23.0168 17.2789C22.5617 16.807 22.2062 16.2564 21.9502 15.6272C21.6942 14.998 21.5662 14.3196 21.5663 13.5921C21.5663 12.8645 21.699 12.1812 21.9645 11.5422C22.2299 10.9031 22.5902 10.3477 23.0453 9.87574C23.5004 9.40389 24.0313 9.03522 24.6381 8.76973C25.2448 8.50424 25.8895 8.3715 26.5721 8.3715C27.2547 8.3715 27.8993 8.50431 28.5061 8.76973C29.1129 9.03516 29.6391 9.40389 30.0847 9.87574C30.5303 10.3477 30.8858 10.9031 31.1513 11.5422C31.4167 12.1812 31.5494 12.8645 31.5494 13.5921C31.5494 14.3196 31.4167 14.998 31.1513 15.6272C30.8858 16.2564 30.5303 16.807 30.0847 17.2789C29.639 17.7509 29.1129 18.1244 28.5061 18.3997C27.8994 18.675 27.2547 18.8126 26.5721 18.8126C25.8705 18.8126 25.2164 18.675 24.6096 18.3997C24.0028 18.1244 23.4719 17.7508 23.0168 17.2789Z" fill="#68737D"/>
<path fill-rule="evenodd" clip-rule="evenodd" d="M37.4058 8.21037C36.7391 8.92166 36.2151 9.74498 35.8341 10.6804C35.4532 11.6158 35.2626 12.6097 35.2627 13.662C35.2627 14.7727 35.4628 15.8007 35.8628 16.7459C36.2629 17.691 36.8106 18.5143 37.506 19.2159C38.2014 19.9175 39.0205 20.4632 39.9636 20.8529C40.9066 21.2426 41.9211 21.4375 43.007 21.4375C44.3406 21.4375 45.5408 21.1549 46.6077 20.5898C47.6746 20.0247 48.5699 19.2452 49.2939 18.2513L47.2078 16.6728C46.1409 18.1344 44.7406 18.8652 43.0069 18.8652C42.3973 18.8652 41.821 18.758 41.278 18.5436C40.7351 18.3294 40.2493 18.0322 39.8206 17.6521C39.392 17.2721 39.0348 16.8239 38.749 16.3075C38.4633 15.7911 38.2727 15.2308 38.1774 14.6267H50.0368V13.6621C50.0368 12.5513 49.8558 11.5233 49.4938 10.5781C49.1319 9.63302 48.627 8.81449 47.9793 8.12273C47.3315 7.43091 46.56 6.89012 45.6646 6.50035C44.7692 6.11065 43.7975 5.91577 42.7497 5.91577C41.6829 5.91577 40.6922 6.12036 39.7777 6.52959C38.8633 6.93882 38.0725 7.49908 37.4058 8.21037ZM38.2346 12.2881C38.5013 11.1383 39.0395 10.2175 39.8492 9.52571C40.6589 8.83396 41.6067 8.48805 42.6926 8.48805C43.7785 8.48805 44.7263 8.83396 45.536 9.52571C46.3457 10.2175 46.8743 11.1383 47.122 12.2881H38.2346Z" fill="#68737D"/>
<path d="M55.3729 10.4952C54.7958 11.1584 54.5073 12.0584 54.5073 13.1953V21.4376H51.7749V6.94262H54.4801V8.73318C54.8228 8.1458 55.2692 7.68156 55.8193 7.34052C56.3693 6.99941 57.0231 6.82886 57.7806 6.82886H58.7274V9.50048H57.5912C56.6895 9.50054 55.95 9.83209 55.3729 10.4952Z" fill="#68737D"/>
</g>
<defs>
<clipPath id="clip0_1_81">
<rect width="59" height="21" fill="white" transform="translate(0.5 0.4375)"/>
</clipPath>
</defs>
</svg>
