<svg width="152" height="29" viewBox="0 0 152 29" fill="none" xmlns="http://www.w3.org/2000/svg">
<g opacity="0.4">
<g clip-path="url(#clip0_1_246)">
<path d="M55.1943 10.0229C52.9375 9.52719 50.6203 9.0041 50.6203 7.11608C50.6203 5.0349 52.7284 4.59872 54.5298 4.59872C56.4113 4.60921 58.2678 5.04877 59.968 5.88636L60.1306 5.96845C60.1529 5.9799 60.1785 5.98195 60.2022 5.97414C60.2259 5.96633 60.2458 5.9493 60.2576 5.92661L61.8824 2.93925C61.8891 2.92743 61.8934 2.9143 61.895 2.90068C61.8965 2.88707 61.8954 2.87326 61.8916 2.86012C61.8879 2.84698 61.8815 2.83479 61.873 2.82431C61.8645 2.81383 61.854 2.80529 61.8421 2.79922L61.6687 2.70908C59.2168 1.55342 56.9228 1.01904 54.4539 1.01904C49.6616 1.01904 46.5638 3.43339 46.5638 7.17402C46.5638 11.4828 50.0364 12.8236 53.7847 13.6284C56.1453 14.1354 58.4315 14.6376 58.4315 16.6029C58.4315 18.7259 56.1639 19.1782 54.2308 19.1782C52.1878 19.1782 50.1386 18.5569 47.964 17.2789L47.8958 17.237C47.8848 17.2302 47.8725 17.2257 47.8598 17.2238C47.8471 17.222 47.8341 17.2228 47.8217 17.2263C47.8093 17.2297 47.7976 17.2357 47.7875 17.2439C47.7773 17.2521 47.7689 17.2624 47.7626 17.2741L46.0805 20.3789C46.0684 20.4017 46.0652 20.4284 46.0715 20.4536C46.0779 20.4787 46.0933 20.5004 46.1146 20.5141L46.1843 20.5576C48.6417 22.0038 51.4145 22.7718 54.2386 22.7884C59.4863 22.7884 62.4958 20.5238 62.4958 16.5739C62.4927 11.6422 58.2952 10.7054 55.1943 10.0229Z" fill="#68737D"/>
<path d="M74.6985 18.8562C74.6943 18.8433 74.6877 18.8313 74.679 18.8211C74.6703 18.8109 74.6597 18.8026 74.6478 18.7967C74.636 18.7909 74.6231 18.7876 74.61 18.787C74.5968 18.7864 74.5837 18.7886 74.5715 18.7934L74.3577 18.8788C73.5166 19.2168 72.9374 19.3616 71.7246 19.3616C70.3166 19.3616 69.4012 18.5713 69.4012 17.3497V9.9054H74.4243C74.437 9.90561 74.4497 9.90319 74.4615 9.89827C74.4734 9.89335 74.4841 9.88603 74.4932 9.87675C74.5023 9.86746 74.5095 9.85639 74.5144 9.84417C74.5194 9.83196 74.5219 9.81885 74.5219 9.80561V6.79411C74.5219 6.76764 74.5118 6.74226 74.4938 6.72355C74.4757 6.70483 74.4513 6.69432 74.4259 6.69432H69.4074V2.7702C69.4074 2.74373 69.3973 2.71835 69.3793 2.69963C69.3613 2.68092 69.3368 2.67041 69.3114 2.67041H65.6343C65.6215 2.6704 65.6089 2.67304 65.5972 2.67815C65.5854 2.68327 65.5748 2.69076 65.5658 2.7002C65.5569 2.70964 65.5498 2.72083 65.5451 2.73312C65.5404 2.74542 65.538 2.75857 65.5382 2.77181V6.69271H62.5365C62.5237 6.69271 62.5111 6.69534 62.4994 6.70046C62.4876 6.70557 62.477 6.71307 62.468 6.7225C62.4591 6.73194 62.452 6.74313 62.4473 6.75543C62.4426 6.76772 62.4402 6.78087 62.4404 6.79411V9.81205C62.4402 9.82542 62.4426 9.83871 62.4474 9.85111C62.4523 9.86351 62.4595 9.87477 62.4686 9.88423C62.4777 9.89369 62.4885 9.90115 62.5004 9.90617C62.5124 9.91119 62.5252 9.91367 62.538 9.91345H65.5398V17.7585C65.5398 20.9084 67.5673 22.7884 70.961 22.7884C72.9327 22.7884 74.0851 22.3619 75.2855 21.8468L75.5132 21.7454C75.5351 21.7351 75.5526 21.7168 75.5624 21.6939C75.5721 21.671 75.5733 21.6452 75.5658 21.6215L74.6985 18.8562Z" fill="#68737D"/>
<path d="M33.083 1.46167H4.7381C2.0523 1.46167 0 3.72954 0 6.52535V22.2782C0 22.3068 0.0109336 22.3342 0.0303954 22.3544C0.0498573 22.3747 0.0762533 22.386 0.103777 22.386H3.76848C3.79601 22.386 3.8224 22.3747 3.84186 22.3544C3.86133 22.3342 3.87226 22.3068 3.87226 22.2782V6.29037H33.9504V22.2782C33.9504 22.3068 33.9614 22.3342 33.9808 22.3544C34.0003 22.3747 34.0267 22.386 34.0542 22.386H37.7235C37.7511 22.386 37.7775 22.3747 37.7969 22.3544C37.8164 22.3342 37.8273 22.3068 37.8273 22.2782V6.52535C37.8273 3.72954 35.7797 1.46167 33.083 1.46167Z" fill="#68737D"/>
<path d="M91.8759 19.4486H91.2935C90.5732 19.4486 90.1906 19.0398 90.1906 18.2688V12.0366C90.1906 8.17365 88.1771 6.29046 84.0136 6.29046C81.7174 6.25157 79.4418 6.74651 77.3533 7.73907C77.3315 7.74903 77.314 7.76707 77.3043 7.78968C77.2946 7.81229 77.2933 7.83785 77.3007 7.86139L78.2192 10.7779C78.2233 10.7909 78.23 10.8028 78.2387 10.813C78.2474 10.8232 78.258 10.8315 78.2698 10.8374C78.2817 10.8433 78.2946 10.8466 78.3077 10.8471C78.3208 10.8477 78.3339 10.8455 78.3462 10.8407C80.3706 10.0085 82.1766 9.55305 83.4374 9.55305C84.8686 9.55305 86.3215 9.82828 86.3215 11.8628V12.7303C86.3215 12.7303 86.0938 12.748 81.4982 13.1327C76.9026 13.5174 76.2319 16.8621 76.2319 18.2173C76.2319 20.9085 78.2889 22.7901 81.2349 22.7901C83.2862 22.8203 85.277 22.0685 86.8311 20.6767C87.1749 21.4252 88.1476 22.6807 90.8009 22.6807H91.8851C91.8979 22.6809 91.9105 22.6784 91.9224 22.6735C91.9342 22.6686 91.945 22.6613 91.9541 22.652C91.9631 22.6427 91.9704 22.6316 91.9753 22.6194C91.9802 22.6072 91.9827 22.5941 91.9827 22.5809V19.5484C91.9828 19.5343 91.98 19.5204 91.9745 19.5075C91.969 19.4946 91.961 19.483 91.9509 19.4736C91.9408 19.4641 91.9289 19.457 91.9159 19.4527C91.903 19.4485 91.8893 19.4471 91.8759 19.4486ZM86.3199 17.9775C84.6161 19.2314 83.4049 19.748 82.1611 19.748C80.8663 19.748 79.9927 19.0527 79.9927 18.0177C79.9927 17.5783 80.0422 16.1973 81.8808 15.9527C83.7193 15.708 86.3168 15.3668 86.3168 15.3668L86.3199 17.9775Z" fill="#68737D"/>
<path d="M141.669 12.8768C139.191 12.4246 137.967 12.1863 137.967 10.9743C137.967 10.2549 138.296 9.30361 140.975 9.30361C142.627 9.30446 144.252 9.7385 145.699 10.5655L145.803 10.6218C145.825 10.6336 145.851 10.6362 145.875 10.629C145.899 10.6219 145.919 10.6055 145.932 10.5832L147.369 7.98859C147.376 7.97667 147.38 7.96345 147.381 7.94976C147.383 7.93608 147.382 7.92222 147.378 7.90907C147.374 7.89591 147.367 7.88375 147.359 7.87333C147.35 7.86292 147.339 7.85449 147.327 7.84856L147.207 7.7874C145.472 6.95847 143.808 6.27441 140.995 6.27441C136.694 6.27441 134.324 7.99986 134.324 11.1321C134.324 14.6957 137.512 15.5455 140.498 16.0606C143.141 16.5161 144.203 16.9024 144.203 18.1144C144.203 19.2185 143.179 19.7545 140.992 19.7545C138.979 19.7545 136.93 18.866 135.557 18.1192L135.471 18.0757C135.448 18.0647 135.423 18.0629 135.399 18.0706C135.375 18.0784 135.356 18.0952 135.344 18.1176L133.917 20.738C133.911 20.7496 133.907 20.7624 133.905 20.7756C133.903 20.7889 133.904 20.8023 133.908 20.8152C133.911 20.8281 133.917 20.8401 133.925 20.8506C133.933 20.8611 133.943 20.8699 133.954 20.8764L134.039 20.9247C136.285 22.1335 138.686 22.7725 140.992 22.7725C145.495 22.7725 147.778 21.1194 147.778 17.8568C147.78 14.3013 144.758 13.4402 141.669 12.8768Z" fill="#68737D"/>
<path d="M102.158 6.29028C100.409 6.29028 98.9318 6.89065 97.5114 8.17991V6.79407C97.5114 6.76761 97.5013 6.74222 97.4833 6.72351C97.4653 6.70479 97.4409 6.69428 97.4154 6.69428H93.7352C93.7225 6.69428 93.7099 6.69691 93.6981 6.70203C93.6863 6.70714 93.6757 6.71464 93.6667 6.72408C93.6578 6.73351 93.6508 6.74471 93.646 6.757C93.6413 6.76929 93.639 6.78244 93.6392 6.79568V28.9176C93.639 28.931 93.6413 28.9443 93.6462 28.9567C93.651 28.9691 93.6582 28.9803 93.6673 28.9898C93.6764 28.9992 93.6872 29.0067 93.6992 29.0117C93.7111 29.0167 93.7239 29.0192 93.7368 29.019H97.4108C97.4235 29.0192 97.4361 29.0168 97.448 29.0119C97.4598 29.0069 97.4706 28.9996 97.4797 28.9903C97.4887 28.9811 97.496 28.97 97.5009 28.9578C97.5058 28.9456 97.5083 28.9324 97.5083 28.9192V20.9519C98.8605 22.1204 100.553 22.79 102.155 22.79C106.263 22.79 109.125 19.3986 109.125 14.541C109.128 9.91341 106.066 6.29028 102.158 6.29028ZM101.19 19.368C99.8456 19.368 98.7118 18.7097 97.5068 17.2338V11.7081C98.7459 10.3255 99.8874 9.71061 101.19 9.71061C103.661 9.71061 105.256 11.6067 105.256 14.5393C105.256 17.4269 103.622 19.368 101.19 19.368Z" fill="#68737D"/>
<path d="M114.994 1.46167H111.317C111.263 1.46167 111.219 1.50707 111.219 1.56307V22.2846C111.219 22.3406 111.263 22.386 111.317 22.386H114.994C115.048 22.386 115.091 22.3406 115.091 22.2846V1.56307C115.091 1.50707 115.048 1.46167 114.994 1.46167Z" fill="#68737D"/>
<path d="M130.882 18.1399C130.869 18.1173 130.849 18.1006 130.824 18.0934C130.8 18.0862 130.774 18.089 130.752 18.1013L130.626 18.1721C129.373 18.8562 128.243 19.5467 125.868 19.5467C123.292 19.5467 121.544 18.0579 121.194 15.5646H132.102C132.115 15.5649 132.128 15.5624 132.14 15.5575C132.151 15.5526 132.162 15.5453 132.171 15.536C132.18 15.5267 132.188 15.5156 132.193 15.5034C132.197 15.4912 132.2 15.4781 132.2 15.4648V14.3687C132.2 9.37903 129.333 6.29028 124.717 6.29028C120.295 6.29028 117.205 9.73153 117.205 14.6601C117.205 19.5226 120.546 22.79 125.518 22.79C127.878 22.8224 130.199 22.1684 132.22 20.902L132.285 20.8585C132.306 20.8443 132.321 20.8224 132.326 20.7973C132.332 20.7722 132.329 20.7457 132.316 20.7233L130.882 18.1399ZM124.753 9.54965C126.766 9.54965 128.006 10.6377 128.337 12.698H121.212C121.553 10.6651 122.811 9.54965 124.753 9.54965Z" fill="#68737D"/>
<path d="M151.966 20.4658H151.811C151.804 20.4658 151.797 20.4678 151.791 20.4714C151.785 20.4751 151.78 20.4804 151.777 20.4868L151.018 21.8485L150.309 20.4948C150.305 20.4883 150.3 20.483 150.293 20.4793C150.287 20.4756 150.28 20.4738 150.273 20.4739H150.089C150.078 20.4739 150.068 20.4783 150.06 20.4862C150.053 20.494 150.048 20.5046 150.048 20.5157V22.3555C150.048 22.3666 150.053 22.3772 150.06 22.3851C150.068 22.3929 150.078 22.3973 150.089 22.3973H150.315C150.325 22.3973 150.336 22.3929 150.343 22.3851C150.351 22.3772 150.355 22.3666 150.355 22.3555V21.195L150.945 22.3056C150.949 22.3118 150.954 22.317 150.96 22.3207C150.966 22.3244 150.972 22.3264 150.979 22.3265H151.037C151.043 22.3264 151.05 22.3244 151.056 22.3207C151.062 22.317 151.067 22.3118 151.071 22.3056L151.69 21.1918V22.3539C151.69 22.365 151.694 22.3756 151.702 22.3835C151.71 22.3913 151.72 22.3957 151.73 22.3957H151.96C151.97 22.3957 151.981 22.3913 151.988 22.3835C151.996 22.3756 152 22.365 152 22.3539V20.5077C152 20.4976 151.997 20.4879 151.99 20.4802C151.984 20.4725 151.975 20.4674 151.966 20.4658Z" fill="#68737D"/>
<path d="M149.724 20.4657H148.363C148.352 20.4657 148.342 20.4702 148.334 20.478C148.327 20.4859 148.322 20.4965 148.322 20.5076V20.7136C148.322 20.7247 148.327 20.7354 148.334 20.7432C148.342 20.7511 148.352 20.7555 148.363 20.7555H148.888V22.3473C148.888 22.3584 148.892 22.3691 148.899 22.3769C148.907 22.3848 148.917 22.3892 148.928 22.3892H149.159C149.169 22.3892 149.18 22.3848 149.187 22.3769C149.195 22.3691 149.199 22.3584 149.199 22.3473V20.7555H149.727C149.738 20.7555 149.748 20.7511 149.756 20.7432C149.763 20.7354 149.767 20.7247 149.767 20.7136V20.5076C149.767 20.5018 149.766 20.4961 149.764 20.4908C149.762 20.4855 149.759 20.4807 149.755 20.4768C149.75 20.4729 149.746 20.4699 149.74 20.468C149.735 20.4661 149.73 20.4653 149.724 20.4657Z" fill="#68737D"/>
</g>
</g>
<defs>
<clipPath id="clip0_1_246">
<rect width="152" height="28" fill="white" transform="translate(0 0.921875)"/>
</clipPath>
</defs>
</svg>
