<svg width="64" height="65" viewBox="0 0 64 65" fill="none" xmlns="http://www.w3.org/2000/svg">
<g clip-path="url(#clip0_1_196)">
<path d="M24 36.922C25.0609 36.922 26.0783 37.3434 26.8284 38.0936C27.5786 38.8437 28 39.8611 28 40.922V60.922C28 61.9829 27.5786 63.0003 26.8284 63.7504C26.0783 64.5006 25.0609 64.922 24 64.922H4C2.93913 64.922 1.92172 64.5006 1.17157 63.7504C0.421427 63.0003 0 61.9829 0 60.922V40.922C0 39.8611 0.421427 38.8437 1.17157 38.0936C1.92172 37.3434 2.93913 36.922 4 36.922H24ZM49 34.922C52.9782 34.922 56.7936 36.5023 59.6066 39.3154C62.4196 42.1284 64 45.9437 64 49.922C64 53.9002 62.4196 57.7155 59.6066 60.5286C56.7936 63.3416 52.9782 64.922 49 64.922C45.0218 64.922 41.2064 63.3416 38.3934 60.5286C35.5804 57.7155 34 53.9002 34 49.922C34 45.9437 35.5804 42.1284 38.3934 39.3154C41.2064 36.5023 45.0218 34.922 49 34.922ZM35.428 2.86199L47.428 22.862C47.7916 23.4688 47.9878 24.1611 47.9965 24.8685C48.0053 25.5758 47.8263 26.2728 47.4778 26.8884C47.1294 27.504 46.6239 28.0162 46.0129 28.3727C45.402 28.7293 44.7074 28.9174 44 28.918H20C19.2926 28.9174 18.598 28.7293 17.9871 28.3727C17.3761 28.0162 16.8706 27.504 16.5222 26.8884C16.1737 26.2728 15.9947 25.5758 16.0035 24.8685C16.0122 24.1611 16.2084 23.4688 16.572 22.862L28.572 2.86199C28.9274 2.26967 29.4301 1.77947 30.0312 1.43914C30.6323 1.0988 31.3112 0.919922 32.002 0.919922C32.6927 0.919922 33.3717 1.0988 33.9728 1.43914C34.5739 1.77947 35.0726 2.26967 35.428 2.86199Z" fill="#17494D"/>
</g>
<defs>
<clipPath id="clip0_1_196">
<rect width="64" height="64" fill="white" transform="translate(0 0.921875)"/>
</clipPath>
</defs>
</svg>
