<svg width="64" height="65" viewBox="0 0 64 65" fill="none" xmlns="http://www.w3.org/2000/svg">
<g clip-path="url(#clip0_1_110)">
<path d="M12.0471 26.9139C5.42118 26.9139 0 32.3351 0 38.961C0 45.5869 5.42118 51.0081 12.0471 51.0081V26.9139ZM52.2052 51.0081C58.8311 51.0081 64.2522 45.5869 64.2522 38.961C64.2522 32.3351 58.8311 26.9139 52.2052 26.9139V51.0081ZM38.1478 57.0316C38.1478 60.4462 35.5388 63.0551 32.1242 63.0551C28.7096 63.0551 26.1007 60.4462 26.1007 57.0316C26.1007 53.617 28.7096 51.0081 32.1242 51.0081C35.5388 51.0081 38.1478 53.617 38.1478 57.0316ZM12.0471 59.0382H30.1176V55.0212H12.0471V59.0382ZM52.2052 22.897H48.1882C48.1882 14.0612 40.96 6.833 32.1242 6.833C23.2885 6.833 16.0602 14.0612 16.0602 22.897H12.0433C12.0433 11.8551 21.0786 2.81982 32.1205 2.81982C43.1624 2.81982 52.1976 11.8551 52.1976 22.897H52.2052Z" fill="#17494D"/>
</g>
<defs>
<clipPath id="clip0_1_110">
<rect width="64" height="64" fill="white" transform="translate(0 0.9375)"/>
</clipPath>
</defs>
</svg>
