<svg width="152" height="21" viewBox="0 0 152 21" fill="none" xmlns="http://www.w3.org/2000/svg">
<g opacity="0.4">
<g clip-path="url(#clip0_1_236)">
<path d="M33.4731 18.2071C30.4731 18.225 27.7584 16.4627 26.5977 13.744C25.4371 11.0254 26.0597 7.88716 28.1747 5.79613C30.2896 3.70511 33.4792 3.07421 36.2526 4.1983C39.0261 5.32239 40.8358 7.97947 40.8358 10.9277C40.8426 14.9336 37.5494 18.1895 33.4731 18.2071ZM33.4731 0.922011C29.3552 0.900968 25.6309 3.32246 24.0401 7.05514C22.4494 10.7878 23.3064 15.0948 26.2106 17.9638C29.1149 20.8327 33.493 21.6973 37.2996 20.1536C41.1062 18.6098 43.5896 14.9625 43.5897 10.9157C43.5898 5.41658 39.0689 0.950607 33.4731 0.922011Z" fill="#68737D"/>
<path d="M71.0394 1.49783C70.946 1.49862 70.8597 1.54707 70.8116 1.62575L60.3859 15.557L49.9601 1.62575C49.9113 1.54585 49.8231 1.49722 49.7283 1.49783C49.5771 1.49782 49.4539 1.6171 49.4517 1.76566V20.326H52.2096V9.36488L60.2232 19.9982C60.2633 20.0457 60.323 20.0732 60.3859 20.0732C60.4488 20.0732 60.5084 20.0457 60.5486 19.9982L68.5621 9.36488V20.326H71.3201V1.76566C71.319 1.69357 71.2888 1.62484 71.2362 1.57461C71.1835 1.52438 71.1127 1.49676 71.0394 1.49783Z" fill="#68737D"/>
<path d="M88.181 10.8518H81.7539V4.21603H88.181C90.0434 4.21603 91.5532 5.69972 91.5532 7.52994C91.5532 9.36017 90.0434 10.8439 88.181 10.8439V10.8518ZM88.181 1.48975H78.9878V20.3179H81.7457V13.5781H88.1728C91.5674 13.5781 94.3193 10.8738 94.3193 7.53794C94.3193 4.20203 91.5674 1.49774 88.1728 1.49774" fill="#68737D"/>
<path d="M10.7017 18.2072C7.22614 18.2265 4.20437 15.8685 3.43588 12.5375C2.66739 9.20651 4.35886 5.79839 7.503 4.34273C10.6471 2.88707 14.3983 3.77537 16.5227 6.47862L18.5037 4.55584C15.7698 1.30973 11.2577 0.0975267 7.22358 1.52532C3.18943 2.95312 0.5 6.71412 0.5 10.9278C0.5 15.1415 3.18943 18.9025 7.22358 20.3303C11.2577 21.7581 15.7698 20.5459 18.5037 17.2998L16.5227 15.377C15.1375 17.1607 12.9849 18.2073 10.7017 18.2072Z" fill="#68737D"/>
<path d="M127.016 9.19283L124.905 8.72114C122.635 8.24144 122.464 6.7224 122.464 6.2467C122.464 4.70767 123.713 3.82422 125.889 3.82422C128.127 3.82422 129.762 5.31528 130.262 5.82296L132.202 3.94814C130.38 2.06933 128.318 1.1499 125.889 1.1499C122.192 1.1499 119.706 3.19262 119.706 6.2347C119.706 7.20209 119.706 10.1442 124.677 11.3475L126.988 11.8832C129.131 12.4628 130.173 13.4822 130.173 14.9932C130.173 16.7641 128.436 17.9993 125.954 17.9993C123.298 17.9993 121.663 16.2044 121.175 15.6008L119.259 17.4557C120.565 18.9187 122.794 20.6536 125.983 20.6536C129.957 20.6536 132.955 18.2152 132.955 14.9852C132.955 12.091 130.921 10.0843 127.036 9.18484" fill="#68737D"/>
<path d="M145.577 9.19283L143.466 8.72114C141.196 8.24144 141.025 6.7224 141.025 6.2467C141.025 4.70767 142.274 3.82422 144.45 3.82422C146.688 3.82422 148.323 5.31528 148.819 5.82296L150.764 3.94814C148.941 2.06933 146.875 1.1499 144.45 1.1499C140.753 1.1499 138.267 3.19262 138.267 6.2347C138.267 7.20209 138.267 10.1442 143.238 11.3475L145.561 11.8712C147.701 12.4508 148.742 13.4702 148.742 14.9812C148.742 16.7521 147.009 17.9873 144.528 17.9873C141.871 17.9873 140.232 16.1924 139.748 15.5888L137.804 17.4636C139.109 18.9267 141.339 20.6616 144.528 20.6616C148.502 20.6616 151.5 18.2232 151.5 14.9932C151.5 12.099 149.466 10.0923 145.581 9.19283" fill="#68737D"/>
<path d="M102.365 12.7746L105.521 6.85835L108.682 12.7746H102.365ZM105.521 1.32983C105.413 1.33078 105.315 1.39303 105.269 1.48973L95.2178 20.3259H98.3378L100.909 15.5009H110.13L112.705 20.3259H115.821L105.774 1.48973C105.727 1.39369 105.63 1.33173 105.521 1.32983Z" fill="#68737D"/>
<path d="M29.125 13.2822L31.0735 15.209L37.8179 8.5452L35.8653 6.61841L29.125 13.2822Z" fill="#68737D"/>
</g>
</g>
<defs>
<clipPath id="clip0_1_236">
<rect width="151" height="20" fill="white" transform="translate(0.5 0.921875)"/>
</clipPath>
</defs>
</svg>
