<svg width="90" height="29" viewBox="0 0 90 29" fill="none" xmlns="http://www.w3.org/2000/svg">
<g clip-path="url(#clip0_1_233)">
<path d="M0 14.9269C0 7.21452 6.42638 0.921875 14.355 0.921875C18.6687 0.921875 22.5426 2.82388 25.1745 5.75121H15.9721C14.8347 5.75121 13.5795 6.51608 12.9863 7.11769C12.3924 7.71896 6.58666 13.3882 5.82842 14.0813C5.07055 14.7758 4.52565 14.9273 3.52991 14.9273L0 14.9269ZM6.30305 18.9346C7.29879 18.9346 7.84368 18.8256 8.60119 18.1318C9.36053 17.4366 15.1436 11.8138 15.7606 11.1675C16.3402 10.5545 17.6082 9.78102 18.7452 9.78102H27.7142C27.3094 8.7875 26.7777 7.84257 26.1622 6.97515L19.3143 6.97408C18.3193 6.97408 17.4062 7.47782 16.865 7.99119C16.3036 8.52063 10.3544 14.3131 9.78613 14.8922C9.78613 14.8922 8.76806 16.1619 6.75207 16.1619L0.0537941 16.1637C0.141987 17.1322 0.333011 18.0357 0.612959 18.9378L6.30305 18.9346ZM9.38322 23.0033C10.3797 23.0033 10.9271 22.8543 11.6825 22.157C12.5596 21.346 18.1531 15.7718 18.8407 15.053C19.4251 14.445 20.6895 13.689 21.8272 13.689L28.6678 13.6915C28.5888 12.7077 28.4062 11.8985 28.1314 10.9843L22.4193 10.9814C21.4232 10.9814 20.4608 11.4994 19.906 12.0003C19.2663 12.5773 13.4441 18.3015 12.8447 18.871C12.8447 18.871 11.8713 20.1439 9.85785 20.1439L1.0338 20.1453C1.4539 21.1624 1.99733 22.117 2.63957 22.9987L9.38322 23.0033ZM3.63933 24.218C6.26719 27.0849 10.0943 28.9219 14.355 28.9219C22.2367 28.9219 28.6305 22.5696 28.7066 14.919L25.1917 14.9158C24.1963 14.9158 23.2013 15.4006 22.6802 15.9326C22.1584 16.4649 16.2315 22.4103 15.6782 22.9436C15.6782 22.9436 14.6141 24.2169 12.5981 24.2169L3.63933 24.218ZM48.2302 16.5838C47.7003 15.7218 47.0262 14.396 43.9882 13.6426C40.811 12.8552 39.5313 12.5555 38.6779 12.3697C37.8256 12.1846 36.4493 11.7445 36.4493 9.95286C36.4493 8.30949 38.1202 7.44066 39.887 7.44066C41.593 7.44066 43.8378 8.14874 44.1916 10.7245H48.2291L48.2302 16.5838ZM69.458 4.6748H62.6635L58.839 19.0875L55.016 4.6748H48.2218L48.2244 9.30945C46.1531 3.95066 41.5835 3.74024 40.1948 3.74024C34.2536 3.74024 32.1205 7.36384 32.1205 10.0322C32.1205 14.3199 35.7555 15.6314 36.7498 15.8779C37.6046 16.0908 41.91 17.0936 42.7549 17.3434C43.7975 17.652 44.6202 18.5309 44.6202 19.628C44.6202 20.6604 43.7975 22.3885 40.669 22.3885C37.5402 22.3885 36.0541 20.7219 35.802 18.7181H31.5994C31.5994 18.7181 31.4417 26.121 40.9204 26.121C44.9748 26.121 47.1027 24.468 48.2284 22.7218L48.2218 25.3508L52.4547 25.3497L52.2867 9.83175L56.6894 25.3497H60.9878L65.3927 9.83175L65.2218 25.3497L69.458 25.3508L69.4591 21.5075C70.4245 23.4234 72.6619 26.1368 77.4934 26.1368C82.9464 26.1368 85.6526 22.8358 86.121 18.6863H82.0575C81.7666 20.7062 79.9171 22.3256 77.5161 22.3256C76.8527 22.3256 72.0957 21.9719 72.0957 14.8922C72.0957 10.0175 74.6566 7.24095 77.5008 7.24095C78.4002 7.24095 81.4025 7.61106 81.8149 11.0861H85.8418C85.5271 6.10275 81.3395 3.71988 77.5008 3.71988C72.9842 3.71988 70.4698 6.03165 69.458 7.92224V4.6748ZM88.766 25.4569L88.1267 24.3573H87.5884V25.4569H87.3513V22.9311H88.07C88.5388 22.9311 88.8828 23.1591 88.8828 23.6188C88.8828 24.0561 88.6376 24.2626 88.3719 24.3233L89.0511 25.4569H88.766ZM88.0345 23.1373H87.5884V24.1629H88.0396C88.3957 24.1629 88.6376 23.9847 88.6376 23.6221C88.6376 23.298 88.3653 23.1373 88.0345 23.1373ZM87.9851 26.2096C88.5249 26.2096 89.0288 26.0056 89.4101 25.6355C89.7892 25.2636 90 24.7706 90 24.2451C90 23.7203 89.7892 23.2255 89.4101 22.8554C89.0288 22.4835 88.5249 22.2795 87.9851 22.2795C86.8756 22.2795 85.9728 23.1616 85.9728 24.2451C85.9728 24.7706 86.1821 25.2636 86.562 25.6355C86.9433 26.0056 87.449 26.2096 87.9851 26.2096ZM86.2092 24.2451C86.2092 23.7793 86.3925 23.3448 86.7288 23.0179C87.0644 22.6896 87.5119 22.5099 87.9851 22.5099C88.4619 22.5099 88.9077 22.6896 89.2443 23.0179C89.5795 23.3448 89.7643 23.7793 89.7643 24.2451C89.7643 25.2018 88.9677 25.9806 87.9851 25.9806C87.5119 25.9806 87.0644 25.7988 86.7288 25.4719C86.3925 25.1436 86.2092 24.7081 86.2092 24.2451Z" fill="#68737D"/>
</g>
<defs>
<clipPath id="clip0_1_233">
<rect width="90" height="28" fill="white" transform="translate(0 0.921875)"/>
</clipPath>
</defs>
</svg>
