<svg width="44" height="25" viewBox="0 0 44 25" fill="none" xmlns="http://www.w3.org/2000/svg">
<g opacity="0.4">
<g clip-path="url(#clip0_1_217)">
<path fill-rule="evenodd" clip-rule="evenodd" d="M16.6897 6.41752H13.7241C13.5862 6.41752 13.4483 6.55665 13.4483 6.69579V24.6436C13.4483 24.7828 13.5862 24.9219 13.7241 24.9219H16.6897C16.8276 24.9219 16.9655 24.7828 16.9655 24.6436V6.69579C16.9655 6.55665 16.8276 6.41752 16.6897 6.41752ZM23.1724 0.921875H20.2069C20.069 0.921875 19.931 1.06101 19.931 1.20014V24.5741C19.931 24.7132 20.069 24.8523 20.2069 24.8523H23.1724C23.3103 24.8523 23.4483 24.7132 23.4483 24.5741V1.20014C23.4483 1.06101 23.3103 0.921875 23.1724 0.921875ZM3.51724 6.41752H10.4138C10.5517 6.41752 10.6897 6.48709 10.6897 6.62622V9.61753C10.6897 9.75665 10.5517 9.89579 10.4138 9.89579H3.51724V15.6002C3.51724 18.7306 6.06896 21.3045 9.17241 21.3045H10.4138C10.5517 21.3045 10.6897 21.4436 10.6897 21.5828V24.5741C10.6897 24.7132 10.5517 24.8523 10.4138 24.8523H9.17241C4.13793 24.8523 0 20.6784 0 15.6002V1.20014C0 1.06101 0.137931 0.921875 0.275862 0.921875H3.24138C3.37931 0.921875 3.51724 1.06101 3.51724 1.20014V6.41752ZM28.4138 9.13058C32 5.58275 37.7241 5.58275 41.3103 9.13058C43.0345 10.8697 44 13.2349 44 15.6697V16.2263C44 16.3654 43.8621 16.5045 43.7241 16.5045H29.5172C29.3793 16.5045 29.3103 16.5741 29.3103 16.7132C29.4483 17.6871 29.931 18.5915 30.5517 19.3567C32.6207 21.7915 36.2069 22.0697 38.5517 19.9828L38.9655 19.8436H42.7586C42.8276 19.8436 42.8965 19.9132 42.8965 19.9828C42.4828 20.8176 41.931 21.5132 41.3103 22.1393C37.7241 25.6871 31.931 25.7567 28.4138 22.1393C24.8966 18.5219 24.8276 12.6784 28.4138 9.13058ZM30 13.3045H39.6552C39.7241 13.2349 39.7241 13.1654 39.7241 13.0958C38.7586 11.2176 36.8276 10.0349 34.7586 10.0349C32.6897 10.0349 30.7586 11.2176 29.7931 13.0958C29.7931 13.2349 29.8621 13.3045 30 13.3045ZM17.2417 2.93927C17.2417 4.05344 16.3462 4.95666 15.2417 4.95666C14.1371 4.95666 13.2417 4.05344 13.2417 2.93927C13.2417 1.82509 14.1371 0.921875 15.2417 0.921875C16.3462 0.921875 17.2417 1.82509 17.2417 2.93927Z" fill="#68737D"/>
</g>
</g>
<defs>
<clipPath id="clip0_1_217">
<rect width="44" height="24" fill="white" transform="translate(0 0.921875)"/>
</clipPath>
</defs>
</svg>
