<svg width="182" height="30" viewBox="0 0 182 30" fill="none" xmlns="http://www.w3.org/2000/svg">
<g opacity="0.4">
<g clip-path="url(#clip0_1_220)">
<path d="M40.6417 13.9368C41.1921 13.2952 41.6507 13.2952 42.1093 13.2952C42.2168 13.2952 42.3558 13.3266 42.4709 13.3527C42.5522 13.3711 42.6217 13.3869 42.6597 13.3869L41.8341 17.053C41.6507 17.6029 41.0086 18.2445 40.3666 18.2445C39.9079 18.2445 39.7244 17.9695 39.7244 17.2363C39.7244 16.2281 39.9996 14.67 40.6417 13.9368Z" fill="#68737D"/>
<path d="M61.0051 15.1283C61.9224 15.1283 62.9313 14.8533 62.9313 14.0285C62.9313 13.5702 62.7479 13.2036 62.1058 13.2036C61.372 13.2036 60.7299 13.6619 60.4547 15.0367C60.4547 15.0367 60.7299 15.1283 61.0051 15.1283Z" fill="#68737D"/>
<path d="M75.7731 17.9695H77.1491C77.6077 17.9695 77.9746 17.8778 78.2498 17.6945C78.7084 17.4196 79.0753 16.6864 79.0753 16.1364C79.0753 15.4032 78.7084 15.1282 77.6994 15.1282H76.4152L75.7731 17.9695Z" fill="#68737D"/>
<path d="M76.7821 13.2951H78.0663C78.6167 13.2951 78.8918 13.2034 79.167 13.0201C79.5339 12.7452 79.8091 12.3786 79.8091 11.8286C79.8091 11.1871 79.5339 10.9121 78.6167 10.9121H77.3325L76.7821 13.2951Z" fill="#68737D"/>
<path d="M91.4581 13.2952C91 13.2952 90.541 13.2952 89.9906 13.9368C89.3488 14.67 89.0735 16.2281 89.0735 17.2363C89.0735 17.9695 89.257 18.2445 89.7153 18.2445C90.3581 18.2445 91 17.6029 91.1829 17.053L92.0086 13.3869C91.9709 13.3869 91.901 13.3711 91.8203 13.3527C91.7046 13.3266 91.5657 13.2952 91.4581 13.2952Z" fill="#68737D"/>
<path d="M113.106 18.4278C112.188 18.4278 111.638 18.0611 111.638 17.3279C111.638 16.5031 112.097 15.8614 112.831 15.4949L114.849 17.8778C114.39 18.2445 113.84 18.4278 113.106 18.4278Z" fill="#68737D"/>
<path d="M114.574 11.0039C115.032 11.0039 115.307 11.2789 115.307 11.7371C115.307 12.3788 114.757 13.1119 114.024 13.4786C113.473 12.9287 113.382 12.562 113.382 12.287C113.382 11.5538 113.931 11.0039 114.574 11.0039Z" fill="#68737D"/>
<path d="M122.554 17.9696H123.563C124.48 17.9696 125.122 17.5113 125.581 16.8697C126.498 15.4033 126.682 13.2952 126.682 12.7453C126.682 11.7371 126.407 10.8206 125.031 10.8206H124.113L122.554 17.9696Z" fill="#68737D"/>
<path d="M134.661 14.0285C134.661 14.8533 133.653 15.1283 132.736 15.1283C132.461 15.1283 132.094 15.0367 132.185 15.0367C132.461 13.6619 133.102 13.2036 133.837 13.2036C134.479 13.2036 134.661 13.5702 134.661 14.0285Z" fill="#68737D"/>
<path d="M154.934 15.1283C155.851 15.1283 156.86 14.8533 156.86 14.0285C156.86 13.5702 156.676 13.2036 156.035 13.2036C155.3 13.2036 154.658 13.6619 154.383 15.0367C154.383 15.0367 154.658 15.1283 154.934 15.1283Z" fill="#68737D"/>
<path fill-rule="evenodd" clip-rule="evenodd" d="M0.00683594 29.6094V0.921875H181.993L165.483 29.6094H0.00683594ZM29.0841 10.5455C30.0014 10.5455 30.8269 10.7289 31.469 11.2788L32.7532 9.99564C32.0194 9.26243 30.7352 8.89581 29.451 8.89581C26.9743 8.89581 24.9564 10.6373 24.9564 12.7452C24.9564 13.9368 25.6902 14.5783 26.8826 14.945L27.9833 15.3115C28.7172 15.4949 29.0841 15.8614 29.0841 16.4114C29.0841 17.4196 28.2586 18.1528 26.8826 18.1528C25.7819 18.1528 25.0482 17.8778 24.1309 17.3279L23.0301 18.9777C23.9474 19.5276 25.0482 19.8942 26.5157 19.8942C29.7262 19.8942 31.6525 17.9695 31.6525 15.6782C31.6525 14.4867 30.9186 13.7534 29.5428 13.2952L28.3503 12.9286C27.6165 12.6536 27.3413 12.3787 27.3413 11.9204C27.3413 11.1872 28.1668 10.5455 29.0841 10.5455ZM37.1561 13.2952H35.7801L34.9547 17.2363C34.8629 17.5112 34.8629 17.6946 34.8629 17.8778C34.8629 18.3361 35.0464 18.4278 35.505 18.4278C35.6884 18.4278 36.0554 18.3361 36.2388 18.2445V19.436C35.6884 19.6192 35.0464 19.8026 34.496 19.8026C33.3035 19.8026 32.6615 19.2526 32.6615 18.4278C32.6615 18.1528 32.6615 17.7862 32.7532 17.4196L33.6705 13.2035H33.0284L33.3035 11.8287H34.0374C34.1024 11.569 34.1558 11.3322 34.2059 11.1103C34.2973 10.7058 34.3775 10.3507 34.496 9.99564L36.6057 9.44573C36.5293 9.75078 36.4372 10.0718 36.3423 10.4019C36.2092 10.8652 36.0707 11.3472 35.9637 11.8287H37.7981L37.1561 13.2952ZM44.1273 18.7027C43.7604 18.2445 43.6687 17.7862 43.8522 17.1446L44.4942 14.2117C44.586 13.5701 44.8612 12.7452 45.0446 12.3787C44.4025 12.012 43.3935 11.8287 42.4763 11.8287C41.192 11.8287 40.1831 12.1953 39.3575 13.0202C38.4403 14.0284 37.7064 15.6782 37.7064 17.5112C37.7064 19.1609 38.4403 19.9859 39.8161 19.9859C40.7334 19.9859 41.3756 19.7109 41.9259 19.0693C41.9259 19.3443 42.1093 19.7109 42.4763 19.9859L44.1273 18.7027ZM48.5302 11.6454C48.6219 11.9204 48.7136 12.5619 48.7136 12.9286C49.3558 12.1953 50.1813 11.7371 51.3738 11.7371C52.3828 11.7371 52.9331 12.287 52.9331 13.2952C52.9331 13.6618 52.9331 14.0284 52.8414 14.395L51.7407 19.7109H49.7226L50.8234 14.67C50.9151 14.395 50.9151 14.12 50.9151 13.9368C50.9151 13.5701 50.7316 13.4785 50.3648 13.4785C49.9061 13.4785 49.2641 13.7534 48.6219 14.67L47.5212 19.7109H45.5032L46.6039 14.4867C46.7875 13.6618 46.7875 12.9286 46.6039 12.4703L48.5302 11.6454ZM56.2353 16.503L57.4277 10.7289C57.703 9.81234 57.703 8.7125 57.4277 8.34589L55.2263 8.98746C55.3849 9.46302 55.2692 10.0757 55.1163 10.8847L55.1161 10.8861C55.0923 11.0122 55.0676 11.143 55.0428 11.2788L53.8504 17.0529C53.7587 17.6028 53.6669 18.1528 53.6669 18.4278C53.6669 19.2526 54.2173 19.8026 55.318 19.8026C55.7767 19.8026 56.2353 19.7109 56.6022 19.6192L56.5105 18.4278H56.327C56.0518 18.4278 55.9601 18.2445 55.9601 17.9695C55.9601 17.8399 56.006 17.6186 56.0977 17.1761C56.1356 16.9928 56.1815 16.7715 56.2353 16.503ZM64.032 18.7944C63.0231 19.5276 61.9223 19.8942 60.8216 19.8942C58.9871 19.8942 57.8864 18.886 57.8864 17.0529C57.8864 15.4032 58.6201 13.7534 59.6291 12.7452C60.363 12.012 61.2803 11.7371 62.2893 11.7371C63.8486 11.7371 64.9493 12.3787 64.9493 13.8451C64.9493 15.3115 63.5734 16.503 61.0051 16.503C60.4547 16.503 60.0878 16.4114 60.0878 16.4114C60.0878 16.4114 59.9961 16.8696 59.9961 17.1446C59.9961 18.0611 60.4547 18.4278 61.2803 18.4278C62.0141 18.4278 62.7479 18.1528 63.4817 17.6028L64.032 18.7944ZM68.435 16.3197L68.0681 11.7371L66.05 12.1036L66.7839 17.6028C66.8756 18.2445 66.9673 19.2526 66.9673 19.8026H67.5177C67.4487 19.9059 67.3855 20.0021 67.3264 20.092C66.9142 20.7193 66.7034 21.04 66.1418 21.3606C65.7749 21.544 65.2245 21.7273 64.7659 21.8189L65.1328 23.1937C65.8666 23.1021 66.6005 22.8271 67.1508 22.4605C67.7929 22.0939 68.3432 21.3606 69.1688 19.8942L73.6634 12.012H71.4619L69.5357 15.6782C69.0771 16.5947 68.5267 17.9695 68.5267 17.9695C68.5267 17.9695 68.435 16.778 68.435 16.3197ZM79.3505 9.07911C80.9098 9.07911 82.1023 9.81234 82.1023 11.3705C82.1023 12.3787 81.4602 13.5701 79.9008 14.0284C80.9098 14.2117 81.4602 15.1282 81.4602 16.0448C81.4602 16.6864 81.185 17.7862 80.4512 18.5194C79.7174 19.3443 78.8001 19.6192 77.149 19.6192H73.2965L75.5897 9.07911H79.3505ZM85.0376 16.503L86.3217 10.7289C86.5052 9.81234 86.5052 8.7125 86.23 8.34589L84.0286 8.98746C84.1872 9.46299 84.0714 10.0756 83.9187 10.8845C83.8947 11.011 83.8699 11.1425 83.8451 11.2788L82.6526 17.0529C82.5609 17.6028 82.4692 18.1528 82.4692 18.4278C82.4692 19.2526 83.0196 19.8026 84.1203 19.8026C84.5789 19.8026 85.0376 19.7109 85.4045 19.6192L85.3127 18.4278H85.1293C84.8541 18.4278 84.7624 18.2445 84.7624 17.9695C84.7624 17.8399 84.8082 17.6188 84.8999 17.1766C84.9379 16.9932 84.9839 16.7715 85.0376 16.503ZM93.1094 17.1446C93.018 17.7862 93.018 18.2445 93.3847 18.7027L91.7333 19.9859C91.3667 19.7109 91.1829 19.3443 91.1829 19.0693C90.6333 19.7109 89.9906 19.9859 89.0735 19.9859C87.6976 19.9859 86.9639 19.1609 86.9639 17.5112C86.9639 15.6782 87.6976 14.0284 88.6149 13.0202C89.4405 12.1953 90.4496 11.8287 91.7333 11.8287C92.6513 11.8287 93.6599 12.012 94.3018 12.3787C94.1709 12.6405 94.04 13.1362 93.9091 13.6319C93.8562 13.8301 93.8042 14.0284 93.7513 14.2117L93.1094 17.1446ZM99.0719 13.2952C99.53 13.2952 99.8976 13.4785 100.264 13.8451L101.548 12.7452C100.906 12.1036 100.173 11.8287 99.4386 11.8287C98.3377 11.8287 97.6044 12.1953 96.8702 12.7452C95.7693 13.6618 94.8522 15.4032 94.8522 17.3279C94.8522 18.9777 95.7693 19.9859 97.5121 19.9859C98.6129 19.9859 99.53 19.6192 100.356 18.9777L99.7138 17.6946C99.0719 18.1528 98.5215 18.4278 97.9711 18.4278C97.4206 18.4278 97.054 18.0611 97.054 17.2363C97.054 16.0448 97.6044 14.395 98.1548 13.7534C98.4301 13.4785 98.7053 13.2952 99.0719 13.2952ZM105.493 8.34589C105.584 8.7125 105.584 9.62903 105.217 11.2788L103.383 19.7109H101.365L103.199 11.1872C103.383 10.0873 103.475 9.44573 103.383 9.07911L105.493 8.34589ZM109.62 11.9204L106.41 15.3115L108.52 19.7109H106.134L104.484 15.3115L107.144 11.9204H109.62ZM118.409 14.5783C118.414 14.5476 118.421 14.5171 118.426 14.4867V14.5783H118.409ZM116.592 14.5783H118.409C118.215 15.5663 117.767 16.7112 117.234 17.5112L118.977 19.7109H116.317L115.766 19.0693C115.032 19.6192 114.115 19.9859 112.647 19.9859C110.538 19.9859 109.346 18.9777 109.346 17.5112C109.346 16.2281 110.263 15.1282 111.913 14.395C111.271 13.8451 111.088 13.2952 111.088 12.6536C111.088 11.0038 112.647 9.62903 114.665 9.62903C116.224 9.62903 117.234 10.3622 117.234 11.5537C117.234 12.7452 116.775 13.5701 114.849 14.4867L114.665 14.5783L116.041 16.2281C116.244 15.8907 116.397 15.3049 116.5 14.9096C116.536 14.7683 116.568 14.6507 116.592 14.5783ZM124.755 9.07911C126.498 9.07911 127.599 9.26242 128.241 10.0873C128.7 10.7289 129.067 11.3705 129.067 12.6536C129.067 14.395 128.425 16.6864 127.14 18.0611C126.039 19.2526 124.939 19.6192 122.646 19.6192H120.077L122.371 9.07911H124.755ZM132.552 19.8942C133.561 19.8942 134.661 19.5276 135.671 18.7944L135.212 17.6028C134.479 18.1528 133.744 18.4278 133.011 18.4278C132.185 18.4278 131.726 18.0611 131.726 17.1446C131.726 16.8696 131.819 16.4114 131.819 16.4114C131.819 16.4114 132.185 16.503 132.736 16.503C135.304 16.503 136.679 15.3115 136.679 13.8451C136.679 12.3787 135.579 11.7371 134.02 11.7371C133.011 11.7371 132.094 12.012 131.36 12.7452C130.35 13.7534 129.617 15.4032 129.617 17.0529C129.617 18.886 130.718 19.8942 132.552 19.8942ZM142.733 13.8451C142.367 13.4785 142 13.2952 141.541 13.2952C141.174 13.2952 140.899 13.4785 140.624 13.7534C140.074 14.395 139.523 16.0448 139.523 17.2363C139.523 18.0611 139.891 18.4278 140.441 18.4278C140.991 18.4278 141.541 18.1528 142.184 17.6946L142.826 18.9777C142 19.6192 141.083 19.9859 139.982 19.9859C138.239 19.9859 137.322 18.9777 137.322 17.3279C137.322 15.4032 138.239 13.6618 139.34 12.7452C140.074 12.1953 140.808 11.8287 141.909 11.8287C142.642 11.8287 143.376 12.1036 144.018 12.7452L142.733 13.8451ZM147.687 11.2788C148.054 9.62903 148.054 8.7125 147.963 8.34589L145.852 9.07911C145.945 9.44573 145.852 10.0873 145.669 11.1872L143.834 19.7109H145.852L147.687 11.2788ZM148.88 15.3115L152.09 11.9204H149.522L146.953 15.3115L148.604 19.7109H150.989L148.88 15.3115ZM157.96 18.7944C156.952 19.5276 155.851 19.8942 154.75 19.8942C152.916 19.8942 151.815 18.886 151.815 17.0529C151.815 15.4032 152.549 13.7534 153.558 12.7452C154.292 12.012 155.209 11.7371 156.217 11.7371C157.777 11.7371 158.877 12.3787 158.877 13.8451C158.877 15.3115 157.502 16.503 154.934 16.503C154.383 16.503 154.017 16.4114 154.017 16.4114C154.017 16.4114 153.924 16.8696 153.924 17.1446C153.924 18.0611 154.383 18.4278 155.209 18.4278C155.942 18.4278 156.676 18.1528 157.41 17.6028L157.96 18.7944ZM162.547 12.9286C162.639 12.4703 162.455 11.9204 162.364 11.6454L160.529 12.4703C160.712 13.0202 160.712 13.6618 160.529 14.67L159.428 19.8026H161.446L162.547 14.67C163.189 13.7534 163.648 13.5701 164.014 13.5701C164.198 13.5701 164.382 13.6618 164.565 13.7534L165.482 11.9204C165.206 11.7371 165.024 11.7371 164.748 11.7371C163.923 11.7371 163.189 12.1953 162.547 12.9286Z" fill="#68737D"/>
</g>
</g>
<defs>
<clipPath id="clip0_1_220">
<rect width="181.986" height="28.6875" fill="white" transform="translate(0.00683594 0.921875)"/>
</clipPath>
</defs>
</svg>
