<svg width="64" height="65" viewBox="0 0 64 65" fill="none" xmlns="http://www.w3.org/2000/svg">
<g clip-path="url(#clip0_1_98)">
<path d="M9.48267 27.2486V38.4486L20.8604 27.2486H9.48267ZM32.2382 4.49304H9.48267C6.96771 4.49304 4.55575 5.49211 2.77741 7.27045C0.999064 9.0488 0 11.4607 0 13.9757C0 16.4907 0.999064 18.9026 2.77741 20.681C4.55575 22.4593 6.96771 23.4584 9.48267 23.4584H32.2382C34.7532 23.4584 37.1651 22.4593 38.9435 20.681C40.7218 18.9026 41.7209 16.4907 41.7209 13.9757C41.7209 11.4607 40.7218 9.0488 38.9435 7.27045C37.1651 5.49211 34.7532 4.49304 32.2382 4.49304ZM54.9938 50.0042V61.2042L43.616 50.0042H54.9938ZM32.2382 27.2486H54.9938C56.2391 27.2486 57.4721 27.4939 58.6226 27.9704C59.7731 28.447 60.8185 29.1455 61.699 30.026C62.5796 30.9066 63.2781 31.9519 63.7546 33.1024C64.2312 34.2529 64.4764 35.486 64.4764 36.7313C64.4764 37.9765 64.2312 39.2096 63.7546 40.3601C63.2781 41.5106 62.5796 42.556 61.699 43.4365C60.8185 44.3171 59.7731 45.0156 58.6226 45.4921C57.4721 45.9687 56.2391 46.2139 54.9938 46.2139H32.2382C30.9929 46.2139 29.7599 45.9687 28.6094 45.4921C27.4589 45.0156 26.4135 44.3171 25.533 43.4365C24.6524 42.556 23.9539 41.5106 23.4774 40.3601C23.0008 39.2096 22.7556 37.9765 22.7556 36.7313C22.7556 35.486 23.0008 34.2529 23.4774 33.1024C23.9539 31.9519 24.6524 30.9066 25.533 30.026C26.4135 29.1455 27.4589 28.447 28.6094 27.9704C29.7599 27.4939 30.9929 27.2486 32.2382 27.2486Z" fill="#17494D"/>
</g>
<defs>
<clipPath id="clip0_1_98">
<rect width="64" height="64" fill="white" transform="translate(0 0.9375)"/>
</clipPath>
</defs>
</svg>
