<svg width="64" height="65" viewBox="0 0 64 65" fill="none" xmlns="http://www.w3.org/2000/svg">
<g clip-path="url(#clip0_1_184)">
<path d="M56.2184 26.8983C56.2184 28.4804 55.9067 30.0469 55.3013 31.5085C54.6959 32.9701 53.8085 34.2982 52.6899 35.4169C51.5712 36.5355 50.2431 37.4229 48.7815 38.0284C47.3199 38.6338 45.7533 38.9454 44.1713 38.9454C42.5893 38.9454 41.0227 38.6338 39.5611 38.0284C38.0995 37.4229 36.7714 36.5355 35.6527 35.4169C34.5341 34.2982 33.6467 32.9701 33.0413 31.5085C32.4358 30.0469 32.1242 28.4804 32.1242 26.8983C32.1242 23.7032 33.3935 20.639 35.6527 18.3798C37.912 16.1205 40.9762 14.8513 44.1713 14.8513C47.3664 14.8513 50.4306 16.1205 52.6899 18.3798C54.9491 20.639 56.2184 23.7032 56.2184 26.8983ZM44.1713 42.9623C38.8465 42.9623 33.7398 45.0776 29.9746 48.8428C26.2094 52.608 24.0941 57.7147 24.0941 63.0395H64.2522C64.2522 57.7147 62.137 52.608 58.3718 48.8428C54.6066 45.0776 49.4999 42.9623 44.1751 42.9623H44.1713ZM26.1007 12.8447C26.1007 15.5076 25.0429 18.0614 23.1599 19.9444C21.277 21.8273 18.7231 22.8851 16.0602 22.8851C13.3973 22.8851 10.8435 21.8273 8.96055 19.9444C7.0776 18.0614 6.01976 15.5076 6.01976 12.8447C6.01976 10.1818 7.0776 7.62794 8.96055 5.74499C10.8435 3.86203 13.3973 2.8042 16.0602 2.8042C18.7231 2.8042 21.277 3.86203 23.1599 5.74499C25.0429 7.62794 26.1007 10.1818 26.1007 12.8447ZM16.064 26.8983C11.8036 26.8983 7.71762 28.5908 4.70504 31.6034C1.69245 34.6159 0 38.7019 0 42.9623H32.1242C32.1242 38.7019 30.4318 34.6159 27.4192 31.6034C24.4066 28.5908 20.3207 26.8983 16.0602 26.8983H16.064Z" fill="#17494D"/>
</g>
<defs>
<clipPath id="clip0_1_184">
<rect width="64" height="64" fill="white" transform="translate(0 0.921875)"/>
</clipPath>
</defs>
</svg>
