<svg width="32" height="33" viewBox="0 0 32 33" fill="none" xmlns="http://www.w3.org/2000/svg">
<g clip-path="url(#clip0_1_435)">
<path d="M31.49 7.0463C30.78 7.3663 30.042 7.6183 29.284 7.8003C30.118 6.9963 30.746 5.9903 31.1 4.8663C31.202 4.5463 30.858 4.2683 30.572 4.4403C29.5219 5.073 28.3853 5.54934 27.198 5.8543C27.0582 5.88771 26.9124 5.88678 26.7731 5.85161C26.6338 5.81643 26.5051 5.74804 26.398 5.6523C25.1435 4.52795 23.5185 3.90559 21.834 3.9043C21.0922 3.90688 20.3551 4.02219 19.648 4.2463C18.5395 4.60236 17.5421 5.23933 16.7528 6.0952C15.9635 6.95106 15.4093 7.99668 15.144 9.1303C14.943 9.97337 14.8876 10.8446 14.98 11.7063C14.9838 11.7415 14.9803 11.7771 14.9697 11.8108C14.959 11.8446 14.9414 11.8758 14.918 11.9023C14.8944 11.9296 14.8652 11.9516 14.8324 11.9668C14.7997 11.982 14.7641 11.99 14.728 11.9903H14.704C9.80795 11.5283 5.39195 9.1363 2.26995 5.2523C2.23325 5.20679 2.18601 5.1709 2.13233 5.14774C2.07865 5.12458 2.02013 5.11484 1.96184 5.11937C1.90355 5.1239 1.84724 5.14256 1.79777 5.17373C1.74831 5.20491 1.70719 5.24766 1.67795 5.2983C0.908519 6.64356 0.601603 8.20408 0.804272 9.74054C1.00694 11.277 1.70801 12.7046 2.79995 13.8043C2.24935 13.6717 1.71968 13.4637 1.22595 13.1863C1.17102 13.1555 1.10898 13.1397 1.04601 13.1404C0.983046 13.141 0.921362 13.1582 0.867118 13.1902C0.812873 13.2222 0.767966 13.2678 0.736879 13.3226C0.705791 13.3774 0.689611 13.4393 0.689954 13.5023C0.669413 14.8521 1.0387 16.1791 1.75351 17.3242C2.46833 18.4693 3.49832 19.3839 4.71995 19.9583L4.57195 19.9603C4.18595 19.9603 3.79395 19.9223 3.40995 19.8483C3.348 19.8369 3.28417 19.8418 3.22468 19.8625C3.1652 19.8832 3.1121 19.919 3.07058 19.9664C3.02907 20.0137 3.00055 20.0711 2.98782 20.1328C2.97509 20.1944 2.97858 20.2584 2.99795 20.3183C3.38107 21.5391 4.09377 22.6305 5.05752 23.4721C6.02127 24.3138 7.19866 24.8731 8.45995 25.0883C6.35946 26.5233 3.87381 27.2888 1.32995 27.2843H0.531954C0.413012 27.2837 0.297344 27.3232 0.203691 27.3966C0.110037 27.4699 0.0438857 27.5727 0.0159536 27.6883C-0.012258 27.8049 -0.00198595 27.9275 0.0452355 28.0378C0.0924569 28.1481 0.174094 28.2402 0.277954 28.3003C3.16055 30.0021 6.44646 30.9006 9.79395 30.9023C12.718 30.9023 15.454 30.3143 17.926 29.1523C20.2037 28.0776 22.2307 26.5371 23.876 24.6303C25.4554 22.8057 26.6895 20.7089 27.518 18.4423C28.3231 16.2739 28.7421 13.9813 28.756 11.6683V11.5623C28.756 11.2023 28.916 10.8643 29.196 10.6363C30.256 9.7643 31.18 8.7363 31.94 7.5823C32.14 7.2783 31.824 6.8963 31.494 7.0443L31.49 7.0463Z" fill="#68737D"/>
</g>
<defs>
<clipPath id="clip0_1_435">
<rect width="32" height="32" fill="white" transform="translate(0 0.90625)"/>
</clipPath>
</defs>
</svg>
