<svg width="40" height="33" viewBox="0 0 40 33" fill="none" xmlns="http://www.w3.org/2000/svg">
<g clip-path="url(#clip0_1_444)">
<path d="M39.2 7.30625C38.8 5.50625 37.4 4.30625 35.6 3.70625C32.6 2.90625 20 2.90625 20 2.90625C20 2.90625 7.4 2.90625 4.4 3.70625C2.6 4.10625 1.2 5.50625 0.8 7.30625C0 10.3063 0 16.9062 0 16.9062C0 16.9062 0 23.5063 0.8 26.5063C1.2 28.3062 2.6 29.5063 4.4 30.1063C7.4 30.9062 20 30.9062 20 30.9062C20 30.9062 32.6 30.9062 35.6 30.1063C37.4 29.7063 38.6 28.3062 39.2 26.5063C40 23.5063 40 16.9062 40 16.9062C40 16.9062 40 10.3063 39.2 7.30625ZM16 22.9062V10.9062L26.4 16.9062L16 22.9062Z" fill="#68737D"/>
</g>
<defs>
<clipPath id="clip0_1_444">
<rect width="40" height="32" fill="white" transform="translate(0 0.90625)"/>
</clipPath>
</defs>
</svg>
